<?xml version="1.0" encoding="utf-8" ?><svg xmlns="http://www.w3.org/2000/svg" xmlns:xlink="http://www.w3.org/1999/xlink" width="1024" height="1024" viewBox="0 0 1024 1024"><path fill="#C9DADB" d="M825.629 105.674C831.442 108.682 840.69 113.482 846.485 117.053C846.683 117.493 846.881 117.934 847.078 118.374L846.974 219.434C869.212 209.467 874.91 213.782 895.005 225.33C907.643 231.559 914.515 237.01 919.342 251.067C924.669 266.577 922.796 286.608 923.17 303.01C924.543 363.131 925.236 404.363 897.878 459.622C876.66 502.617 845.64 540.027 807.317 568.838C801.735 573.044 791.359 581.052 785.421 583.74C784.767 584.296 784.557 584.479 784.206 585.298C779.403 596.507 774.72 606.469 768.683 617.107C768.437 618.686 768.261 619.874 767.853 621.438L766.861 622.113C765.001 621.632 762.948 619.442 761.463 618.058L761.346 619.681C763.24 620.821 763.644 621.333 765.24 622.929C745.218 655.009 701.58 723.17 668.432 740.106C663.69 743.146 657.455 745.448 652.079 747.114C623.859 755.857 597.55 738.657 573.632 725.243C565.248 720.641 558.404 716.919 550.718 711.049C545.934 707.395 542.177 703.596 537.643 699.977C520.451 703.823 512.797 704.18 495.383 704.021C478.339 740.34 426.717 823.81 390.982 842.59C383.119 847.47 370.736 850.826 361.683 852.13C339.408 855.336 318.763 842.892 300.105 832.384C295.205 830.166 286.857 824.959 282.182 822.115L279.925 823.268C277.079 825.418 266.418 829.347 262.988 830.414C240.467 837.424 215.631 841.781 192.841 833.498C185.346 830.773 178.196 826.842 171.099 823.199C105.468 795.172 120.156 719.393 118.972 662.587C118.583 643.911 118.892 631.178 123.374 612.983C129.282 592.937 136.582 580.661 149.213 564.265C157.847 553.237 174.121 539.716 187.25 534.911C187.693 515.423 187.45 495.208 187.459 475.678L187.291 385.863C188.201 384.616 200.048 384.236 202.232 384.055C210.147 383.335 218.036 382.355 225.888 381.117C244.236 378.068 263.28 371.54 280.879 365.631C311.294 355.417 340.047 341.269 368.278 326.181C373.701 323.253 379.266 320.237 384.556 317.057C416.169 298.051 448.363 279.129 476.458 255.062C496.7 237.723 516.728 220.29 534.378 200.302C538.339 195.816 542.27 191.117 546.399 186.837C551.775 189.054 561.699 195.75 567.483 198.328C567.649 198.68 567.815 199.031 567.981 199.383C567.957 226.596 567.509 254.885 567.889 281.974C596.011 272.376 620.492 257.154 646.698 244.278C671.862 230.228 698.096 214.682 722.149 198.855C730.604 193.292 738.443 186.324 746.477 180.31C776.888 157.545 800.239 133.496 825.629 105.674ZM509.313 666.343C501.312 655.761 493.34 633.984 488.368 621.36C486.63 616.949 484.439 609.282 482.21 605.454C481.822 601.15 480.417 597.327 479.191 593.171L478.404 591.543C478.997 589.099 474.871 575.578 473.88 571.984C481.631 561.95 485.062 552.219 488.635 540.317C489.036 538.358 489.316 536.432 489.621 534.458L490.664 533.664C489.825 528.452 489.77 519.576 489.708 514.021C489.583 502.828 489.404 491.068 489.724 479.893C490.389 477.952 490.019 467.488 489.963 464.804L489.098 465.018C481.439 461.826 474.171 456.743 467.412 454.03L466.931 453.925C461.263 457.091 453.214 461.195 448.045 464.649C443.24 467.859 423.591 484.985 422.021 489.819C421.444 491.018 421.399 490.813 420.351 491.808C420.024 491.764 419.698 491.719 419.371 491.674C412.608 482.42 397.433 446.622 391.915 440.154L390.582 439.568C391.974 435.74 390.94 363.355 390.895 352.272C390.01 348.36 390.997 341.708 390.213 337.587C390.038 336.667 389.955 336.903 388.933 336.33C382.661 333.739 374.762 329.276 368.278 326.181C340.047 341.269 311.294 355.417 280.879 365.631C263.28 371.54 244.236 378.068 225.888 381.117C218.036 382.355 210.147 383.335 202.232 384.055C200.048 384.236 188.201 384.616 187.291 385.863L187.459 475.678C187.45 495.208 187.693 515.423 187.25 534.911C174.121 539.716 157.847 553.237 149.213 564.265C136.582 580.661 129.282 592.937 123.374 612.983C118.892 631.178 118.583 643.911 118.972 662.587C120.156 719.393 105.468 795.172 171.099 823.199C178.196 826.842 185.346 830.773 192.841 833.498C215.631 841.781 240.467 837.424 262.988 830.414C266.418 829.347 277.079 825.418 279.925 823.268L282.182 822.115C286.857 824.959 295.205 830.166 300.105 832.384C318.763 842.892 339.408 855.336 361.683 852.13C370.736 850.826 383.119 847.47 390.982 842.59C426.717 823.81 478.339 740.34 495.383 704.021C512.797 704.18 520.451 703.823 537.643 699.977C533.347 696.159 530.264 693.2 526.386 688.977L519.122 679.841C516 676.614 511.877 670.219 509.313 666.343ZM668.673 254.736C667.785 284.19 669.063 314.776 668.469 344.364C668.376 349.031 668.931 368.721 668.302 371.635L668.728 372.535C667.816 380.533 668.608 402.16 668.613 411.246L668.603 491.114C668.63 503.401 669.31 523.835 668.485 535.303L668.527 536.939C667.995 542.357 668.269 550.78 668.344 556.416C685.391 547.734 706.738 540.004 725.987 545.971C740.151 550.362 751.757 563.355 758.23 576.275C764.84 589.466 766.423 598.871 767.975 613.202L768.683 617.107C774.72 606.469 779.403 596.507 784.206 585.298C784.557 584.479 784.767 584.296 785.421 583.74C791.359 581.052 801.735 573.044 807.317 568.838C845.64 540.027 876.66 502.617 897.878 459.622C925.236 404.363 924.543 363.131 923.17 303.01C922.796 286.608 924.669 266.577 919.342 251.067C914.515 237.01 907.643 231.559 895.005 225.33C874.91 213.782 869.212 209.467 846.974 219.434L847.078 118.374C846.881 117.934 846.683 117.493 846.485 117.053C840.69 113.482 831.442 108.682 825.629 105.674C800.239 133.496 776.888 157.545 746.477 180.31C738.443 186.324 730.604 193.292 722.149 198.855C698.096 214.682 671.862 230.228 646.698 244.278C652.525 247.398 662.121 252.213 668.246 254.59L668.673 254.736Z"/><path fill="#C9DADB" d="M187.291 385.863C188.201 384.616 200.048 384.236 202.232 384.055C210.147 383.335 218.036 382.355 225.888 381.117C244.236 378.068 263.28 371.54 280.879 365.631C311.294 355.417 340.047 341.269 368.278 326.181C374.762 329.276 382.661 333.739 388.933 336.33C389.955 336.903 390.038 336.667 390.213 337.587C390.997 341.708 390.01 348.36 390.895 352.272C390.94 363.355 391.974 435.74 390.582 439.568L391.915 440.154C397.433 446.622 412.608 482.42 419.371 491.674C419.698 491.719 420.024 491.764 420.351 491.808C421.399 490.813 421.444 491.018 422.021 489.819C423.591 484.985 443.24 467.859 448.045 464.649C453.214 461.195 461.263 457.091 466.931 453.925L467.412 454.03C474.171 456.743 481.439 461.826 489.098 465.018L489.963 464.804C490.019 467.488 490.389 477.952 489.724 479.893C489.404 491.068 489.583 502.828 489.708 514.021C489.77 519.576 489.825 528.452 490.664 533.664L489.621 534.458C489.316 536.432 489.036 538.358 488.635 540.317C485.062 552.219 481.631 561.95 473.88 571.984C474.871 575.578 478.997 589.099 478.404 591.543L479.191 593.171C480.417 597.327 481.822 601.15 482.21 605.454C484.439 609.282 486.63 616.949 488.368 621.36C493.34 633.984 501.312 655.761 509.313 666.343C508.543 669.668 504.803 680.349 504.643 681.749C509.478 681.184 514.305 680.548 519.122 679.841L526.386 688.977C530.264 693.2 533.347 696.159 537.643 699.977C520.451 703.823 512.797 704.18 495.383 704.021C478.339 740.34 426.717 823.81 390.982 842.59C383.119 847.47 370.736 850.826 361.683 852.13C339.408 855.336 318.763 842.892 300.105 832.384C295.205 830.166 286.857 824.959 282.182 822.115L279.925 823.268C277.079 825.418 266.418 829.347 262.988 830.414C240.467 837.424 215.631 841.781 192.841 833.498C185.346 830.773 178.196 826.842 171.099 823.199C105.468 795.172 120.156 719.393 118.972 662.587C118.583 643.911 118.892 631.178 123.374 612.983C129.282 592.937 136.582 580.661 149.213 564.265C157.847 553.237 174.121 539.716 187.25 534.911C187.693 515.423 187.45 495.208 187.459 475.678L187.291 385.863ZM149.616 663.839C149.699 680.505 149.659 697.171 149.495 713.836C149.319 748.475 148.254 777.68 175.119 805.57C178.562 809.145 181.717 811.117 186.373 812.859C206.924 817.629 226.839 814.652 246.728 808.514C251.587 806.584 255.826 804.828 260.887 803.417C223.083 768.309 201.943 709.461 194.687 659.534C185.69 668.366 169.578 681.466 156.994 670.368C155.171 669.179 151.375 665.493 149.616 663.839ZM153.676 623.832C156.37 623.456 182.109 610.611 187.062 608.769C188.147 605.175 187.425 577.599 187.49 572.039C170.353 582.97 159.499 604.973 153.676 623.832Z"/><path fill="#31AEB8" d="M467.412 454.03C474.171 456.743 481.439 461.826 489.098 465.018L489.963 464.804C490.019 467.488 490.389 477.952 489.724 479.893C489.404 491.068 489.583 502.828 489.708 514.021C489.77 519.576 489.825 528.452 490.664 533.664L489.621 534.458C489.316 536.432 489.036 538.358 488.635 540.317C485.062 552.219 481.631 561.95 473.88 571.984C474.871 575.578 478.997 589.099 478.404 591.543L479.191 593.171C480.417 597.327 481.822 601.15 482.21 605.454C484.439 609.282 486.63 616.949 488.368 621.36C493.34 633.984 501.312 655.761 509.313 666.343C508.543 669.668 504.803 680.349 504.643 681.749C509.478 681.184 514.305 680.548 519.122 679.841L526.386 688.977C530.264 693.2 533.347 696.159 537.643 699.977C520.451 703.823 512.797 704.18 495.383 704.021C478.339 740.34 426.717 823.81 390.982 842.59C391.334 835.347 391.825 764.863 390.422 760.635C387.803 761.924 384.918 763.469 382.187 764.402C376.538 760.906 369.258 758.798 362.788 754.596C373.524 750.969 381.231 746.123 390.527 739.9C397.135 734.982 403.031 729.603 409.08 724.038C414.714 717.082 441.081 688.044 441.425 681.78C434.916 675.387 429.604 667.879 425.742 659.614C417.052 641.334 415.94 621.776 416.467 601.884C417.037 580.422 414.3 558.39 421.555 537.733C427.251 523.307 432.199 512.557 442.134 500.214C435.537 497.128 428.547 493.219 422.021 489.819C423.591 484.985 443.24 467.859 448.045 464.649C453.214 461.195 461.263 457.091 466.931 453.925L467.412 454.03Z"/><path fill="#C9DADB" d="M461.352 528.876C465.914 530.91 474.611 535.992 478.981 538.765C482.041 537.162 485.353 535.96 488.76 534.119L489.621 534.458C489.316 536.432 489.036 538.358 488.635 540.317C485.062 552.219 481.631 561.95 473.88 571.984C466.177 580.857 455.278 590.91 442.628 586.286C439.832 584.825 438.766 583.815 436.406 581.818C434.246 580.627 429.269 578.805 428.333 577.171C428.378 572.147 428.477 567.124 428.63 562.103L429.397 562.449L429.396 562.083C428.71 559.796 429.019 558.53 429.561 556.248C429.603 553.599 429.756 551.599 430.002 548.996C431.64 549.627 433.32 550.216 434.889 550.985L435.607 551.151C442.545 546.377 452.252 534.076 461.352 528.876Z"/><path fill="#E3ECED" d="M461.352 528.876C465.914 530.91 474.611 535.992 478.981 538.765C474.482 540.851 445.493 555.066 442.562 555.289C440.53 554.271 437.644 552.392 435.607 551.151C442.545 546.377 452.252 534.076 461.352 528.876Z"/><path fill="#94CED5" d="M430.002 548.996C431.64 549.627 433.32 550.216 434.889 550.985L435.607 551.151C437.644 552.392 440.53 554.271 442.562 555.289C438.319 557.875 433.027 559.622 429.396 562.083C428.71 559.796 429.019 558.53 429.561 556.248C429.603 553.599 429.756 551.599 430.002 548.996Z"/><path fill="#07A0A7" d="M430.002 548.996C431.64 549.627 433.32 550.216 434.889 550.985C432.531 552.991 431.598 553.975 429.561 556.248C429.603 553.599 429.756 551.599 430.002 548.996Z"/><path fill="#0A7784" d="M428.63 562.103L429.397 562.449C429.954 570.34 430.958 575.511 436.406 581.818C434.246 580.627 429.269 578.805 428.333 577.171C428.378 572.147 428.477 567.124 428.63 562.103Z"/><path fill="#31AEB8" d="M473.88 571.984C474.871 575.578 478.997 589.099 478.404 591.543C469.828 604.11 445.348 631.007 432.844 639.851C430.047 632.783 428.265 612.2 429.174 604.464C432.572 598.579 438.6 593.209 442.628 586.286C455.278 590.91 466.177 580.857 473.88 571.984Z"/><path fill="#0D8790" d="M466.319 490.163C470.247 487.86 485.476 478.256 489.724 479.893C489.404 491.068 489.583 502.828 489.708 514.021C489.77 519.576 489.825 528.452 490.664 533.664L489.621 534.458L488.76 534.119C485.353 535.96 482.041 537.162 478.981 538.765C474.611 535.992 465.914 530.91 461.352 528.876L461.014 528.406C463.174 526.995 465.055 525.35 466.622 523.299C465.757 517.283 465.878 496.537 466.319 490.163Z"/><path fill="#94CED5" d="M466.622 523.299C472.343 525.66 483.098 531.092 488.76 534.119C485.353 535.96 482.041 537.162 478.981 538.765C474.611 535.992 465.914 530.91 461.352 528.876L461.014 528.406C463.174 526.995 465.055 525.35 466.622 523.299Z"/><path fill="#94CED5" d="M467.412 454.03C474.171 456.743 481.439 461.826 489.098 465.018C483.63 468.51 476.778 470.843 471 474.088C462.328 479.043 454.562 485.435 448.032 492.992C446.687 494.522 443.085 499.248 442.134 500.214C435.537 497.128 428.547 493.219 422.021 489.819C423.591 484.985 443.24 467.859 448.045 464.649C453.214 461.195 461.263 457.091 466.931 453.925L467.412 454.03Z"/><path fill="#024F5C" d="M478.404 591.543L479.191 593.171C475.028 612.978 460.555 652.806 447.92 667.904C441.23 660.342 435.791 650.064 432.39 640.598L432.844 639.851C445.348 631.007 469.828 604.11 478.404 591.543Z"/><path fill="#0D8790" d="M441.425 681.78C445.964 684.947 449.032 688.675 454.012 691.327C457.156 693.132 459.512 694.4 462.78 695.928C465.313 697.111 468.859 698.046 470.831 699.545C467.076 699.827 457.09 694.396 453.335 692.478C452.308 693.819 450.406 697.712 449.401 699.482C446.477 704.625 443.841 708.873 440.41 713.687C436.953 716.079 429.747 727.035 425.127 731.378C421.174 729.551 412.892 725.409 409.08 724.038C414.714 717.082 441.081 688.044 441.425 681.78Z"/><defs><linearGradient id="gradient_0" gradientUnits="userSpaceOnUse" x1="456.36679" y1="627.22809" x2="482.25375" y2="646.6109"><stop offset="0" stop-color="#026E6F"/><stop offset="1" stop-color="#06818E"/></linearGradient></defs><path fill="url(#gradient_0)" d="M479.191 593.171C480.417 597.327 481.822 601.15 482.21 605.454C476.218 636.864 472.483 649.253 460.128 678.53C456.819 676.081 450.486 671.223 447.92 667.904C460.555 652.806 475.028 612.978 479.191 593.171Z"/><path fill="#0D8790" d="M362.788 754.596C373.524 750.969 381.231 746.123 390.527 739.9C392.598 742.535 402.985 746.747 406.903 749.28C402.731 752.7 393.273 757.838 390.422 760.635C387.803 761.924 384.918 763.469 382.187 764.402C376.538 760.906 369.258 758.798 362.788 754.596Z"/><path fill="#07A0A7" d="M440.41 713.687C431.593 727.531 419.71 739.137 406.903 749.28C402.985 746.747 392.598 742.535 390.527 739.9C397.135 734.982 403.031 729.603 409.08 724.038C412.892 725.409 421.174 729.551 425.127 731.378C429.747 727.035 436.953 716.079 440.41 713.687Z"/><path fill="#42B7BF" d="M526.386 688.977C524.494 690.203 517.458 689.953 514.862 690.029C496.587 690.567 477.717 687.426 461.352 678.861L461.199 678.293C464.785 678.058 470.12 680.097 473.656 680.595C479 681.347 501.376 684.39 504.643 681.749C509.478 681.184 514.305 680.548 519.122 679.841L526.386 688.977Z"/><path fill="#94CED5" d="M431.519 540.875C436.583 538.933 457.674 526.208 459.568 526.442L461.014 528.406L461.352 528.876C452.252 534.076 442.545 546.377 435.607 551.151L434.889 550.985C433.32 550.216 431.64 549.627 430.002 548.996L429.994 547.681C430.073 544.94 430.69 543.443 431.519 540.875Z"/><path fill="#07A0A7" d="M428.333 577.171C429.269 578.805 434.246 580.627 436.406 581.818C438.766 583.815 439.832 584.825 442.628 586.286C438.6 593.209 432.572 598.579 429.174 604.464L428.02 602.813C427.957 597.296 427.519 582.332 428.333 577.171Z"/><path fill="#0D8790" d="M428.02 602.813L429.174 604.464C428.265 612.2 430.047 632.783 432.844 639.851L432.39 640.598C428.245 633.365 428.153 611.465 428.02 602.813Z"/><path fill="#0D8790" d="M428.63 562.103C428.569 557.844 426.294 551.005 429.994 547.681L430.002 548.996C429.756 551.599 429.603 553.599 429.561 556.248C429.019 558.53 428.71 559.796 429.396 562.083L429.397 562.449L428.63 562.103Z"/><defs><linearGradient id="gradient_1" gradientUnits="userSpaceOnUse" x1="375.55606" y1="755.07526" x2="357.01035" y2="532.83783"><stop offset="0" stop-color="#024755"/><stop offset="1" stop-color="#056B74"/></linearGradient></defs><path fill="url(#gradient_1)" d="M402.666 527.832C408.17 531.029 415.72 534.666 421.555 537.733C414.3 558.39 417.037 580.422 416.467 601.884C415.94 621.776 417.052 641.334 425.742 659.614C429.604 667.879 434.916 675.387 441.425 681.78C441.081 688.044 414.714 717.082 409.08 724.038C403.031 729.603 397.135 734.982 390.527 739.9C381.231 746.123 373.524 750.969 362.788 754.596C354.786 757.074 346.934 759.043 338.452 758.696C335.439 758.573 329.645 757.59 326.978 757.745C305.706 740.376 300.821 709.752 298.546 683.997C299.524 684.323 300.512 684.62 301.508 684.886C332.594 693.267 364.253 684.033 391.457 668.546C391.285 653.469 391.616 638.398 391.418 623.324C392.945 622.345 396.77 620.96 398.613 620.229C397.304 606.044 397.771 593 397.457 578.936C397.024 559.507 397.59 546.74 402.666 527.832Z"/><path fill="#31AEB8" d="M398.613 620.229C401.203 636.367 402.753 642.876 410.294 657.359C405.641 660.404 396.286 666.378 391.457 668.546C391.285 653.469 391.616 638.398 391.418 623.324C392.945 622.345 396.77 620.96 398.613 620.229Z"/><path fill="#07A0A7" d="M391.915 440.154C397.433 446.622 412.608 482.42 419.371 491.674C419.698 491.719 420.024 491.764 420.351 491.808C421.399 490.813 421.444 491.018 422.021 489.819C428.547 493.219 435.537 497.128 442.134 500.214C432.199 512.557 427.251 523.307 421.555 537.733C415.72 534.666 408.17 531.029 402.666 527.832C397.59 546.74 397.024 559.507 397.457 578.936C397.771 593 397.304 606.044 398.613 620.229C396.77 620.96 392.945 622.345 391.418 623.324C381.803 626.993 360.807 636.154 351.531 628.841C340.008 623.748 338.365 609.254 342.313 598.677C343.382 593.942 345.384 589.791 347.579 585.495C349.917 586.21 350.809 586.875 352.894 588.137C355.935 582.671 359.577 576.851 362.82 571.452C372.061 556.475 377.616 543.965 381.173 526.643C387.01 498.218 389.881 469.086 391.915 440.154Z"/><path fill="#0A7784" d="M348.006 586.635L351.083 588.23C351.218 590.092 348.962 594.346 348.274 596.446C347.406 599.093 347.446 601.682 347.091 604.22C345.374 616.51 346.563 618.754 351.531 628.841C340.008 623.748 338.365 609.254 342.313 598.677C344.181 596.658 346.47 589.903 348.006 586.635Z"/><path fill="#0D8790" d="M210.349 560.556C210 568.837 210.539 578.481 210.566 586.934C210.606 599.465 210.77 612.245 211.697 624.728C211.952 628.171 211.678 632.103 212.053 635.554C217.362 684.455 229.175 736.063 253.97 779.003C255.928 782.393 259.212 788.418 261.396 791.454C265.567 797.176 270.299 802.384 274.998 807.662C278.768 811.896 282.621 815.423 286.746 819.257C290.864 823.084 298.275 827.218 300.105 832.384C295.205 830.166 286.857 824.959 282.182 822.115C279.674 819.744 277.142 817.399 274.585 815.08C270.561 811.72 264.852 806.175 260.887 803.417C223.083 768.309 201.943 709.461 194.687 659.534C195.388 657.483 198.504 652.888 199.753 650.872C202.617 646.247 212.952 624.873 209.949 620.521C203.416 617.765 192.978 612.752 187.062 608.769C188.147 605.175 187.425 577.599 187.49 572.039C193.947 568.104 203.318 563.94 210.349 560.556Z"/><path fill="#0D8790" d="M123.374 612.983C127.483 614.226 139.156 619.706 142.855 621.969C135.216 639.2 138.587 678.571 138.009 698.848C137.516 716.159 136.609 739.772 138.412 756.535C139.589 766.669 142.082 776.606 145.83 786.095C149.329 795.131 155.116 805.286 161.373 812.776C164.574 816.609 168.883 818.634 171.099 823.199C105.468 795.172 120.156 719.393 118.972 662.587C118.583 643.911 118.892 631.178 123.374 612.983Z"/><path fill="#E3ECED" d="M187.291 385.863C188.201 384.616 200.048 384.236 202.232 384.055C210.147 383.335 218.036 382.355 225.888 381.117C244.236 378.068 263.28 371.54 280.879 365.631C311.294 355.417 340.047 341.269 368.278 326.181C374.762 329.276 382.661 333.739 388.933 336.33C383.696 340.65 366.428 349.163 359.976 352.401C319.738 372.59 276.621 391.441 231.52 396.794C226.04 397.445 215.423 398.833 210.266 398.34C205.282 394.794 193.473 389.454 187.291 385.863Z"/><path fill="#0D8790" d="M187.291 385.863C193.473 389.454 205.282 394.794 210.266 398.34C210.773 430.14 210.149 462.911 210.067 494.798L210.006 529.398C209.999 533.694 210.248 542.498 209.896 546.523C204.344 543.474 192.764 537.043 187.25 534.911C187.693 515.423 187.45 495.208 187.459 475.678L187.291 385.863Z"/><path fill="#94CED5" d="M123.374 612.983C129.282 592.937 136.582 580.661 149.213 564.265C154.304 567.879 163.541 573.016 169.293 575.141C165.323 580.954 161.077 586.004 156.995 592.111C149.779 602.905 147.717 611.136 142.855 621.969C139.156 619.706 127.483 614.226 123.374 612.983Z"/><path fill="#E3ECED" d="M187.25 534.911C192.764 537.043 204.344 543.474 209.896 546.523C208.674 547.851 197.126 553.36 194.137 555.045C186.291 559.471 175.12 568.191 169.293 575.141C163.541 573.016 154.304 567.879 149.213 564.265C157.847 553.237 174.121 539.716 187.25 534.911Z"/><path fill="#94CED5" d="M187.062 608.769C192.978 612.752 203.416 617.765 209.949 620.521C198.084 627.978 174.535 638.495 161.265 643.326C158.607 641.202 153.456 637.673 150.063 637.408C150.804 631.663 151.498 629.189 153.676 623.832C156.37 623.456 182.109 610.611 187.062 608.769Z"/><path fill="#94CED5" d="M260.887 803.417C264.852 806.175 270.561 811.72 274.585 815.08C271.725 815.777 267.025 817.006 264.304 818.082L263.893 818.026C263.747 818.081 263.602 818.137 263.456 818.192C239.247 824.451 213.026 828.737 189.77 816.666C187.528 815.503 187.01 815.066 186.373 812.859C206.924 817.629 226.839 814.652 246.728 808.514C251.587 806.584 255.826 804.828 260.887 803.417Z"/><path fill="#0D8790" d="M260.887 803.417C264.852 806.175 270.561 811.72 274.585 815.08C271.725 815.777 267.025 817.006 264.304 818.082L263.893 818.026C259.376 814.888 252.208 812.442 246.728 808.514C251.587 806.584 255.826 804.828 260.887 803.417Z"/><defs><linearGradient id="gradient_2" gradientUnits="userSpaceOnUse" x1="387.20151" y1="506.16888" x2="362.54596" y2="504.81726"><stop offset="0" stop-color="#3A9FA9"/><stop offset="1" stop-color="#95C9D3"/></linearGradient></defs><path fill="url(#gradient_2)" d="M362.291 562.85C362.563 561.934 364.997 557.546 365.574 556.547C371.689 545.946 375.156 534.952 377.802 523.103C378.307 520.839 380.047 510.526 380.37 509.604C383.07 501.879 387.223 441.679 389.029 439.561L390.582 439.568L391.915 440.154C389.881 469.086 387.01 498.218 381.173 526.643C377.616 543.965 372.061 556.475 362.82 571.452C361.489 571.589 361.454 571.462 360.153 571.03C358.264 568.377 362.113 566.427 362.291 562.85Z"/><path fill="#024F5C" d="M326.978 757.745C329.645 757.59 335.439 758.573 338.452 758.696C346.934 759.043 354.786 757.074 362.788 754.596C369.258 758.798 376.538 760.906 382.187 764.402C361.93 772.005 343.949 772.333 326.978 757.745Z"/><path fill="#94CED5" d="M362.291 562.85C362.113 566.427 358.264 568.377 360.153 571.03C361.454 571.462 361.489 571.589 362.82 571.452C359.577 576.851 355.935 582.671 352.894 588.137C350.809 586.875 349.917 586.21 347.579 585.495C352.29 577.971 357.473 570.574 362.291 562.85Z"/><path fill="#42B7BF" d="M274.585 815.08C277.142 817.399 279.674 819.744 282.182 822.115L279.925 823.268C274.276 820.953 270.885 822.832 264.304 818.082C267.025 817.006 271.725 815.777 274.585 815.08Z"/><path fill="#31AEB8" d="M150.063 637.408C153.456 637.673 158.607 641.202 161.265 643.326C157.554 644.855 153.667 646.657 149.976 648.289L150.063 637.408Z"/><path fill="#94CED5" d="M150.253 649.404L150.345 649.921C151.265 655.333 150.864 659.703 153.748 664.923C154.752 666.741 156.08 668.602 156.994 670.368C155.171 669.179 151.375 665.493 149.616 663.839C150.202 659.474 149.943 653.992 150.253 649.404Z"/><path fill="#024F5C" d="M260.954 541.843C250.189 533.381 259.797 518.336 265.552 509.975C276.899 493.492 291.659 478.363 309.96 469.759C318.055 465.954 332.054 461.606 340.837 464.836C349.233 467.838 354.044 472.674 354.171 481.859C352.69 493.67 341.035 506.853 333.543 515.446C332.539 516.363 332.439 516.129 331.739 516.706C324.019 523.069 316.508 529.258 308.452 535.22C297.042 541.504 276.988 550.364 264.1 544.026C262.982 543.43 261.973 542.607 260.954 541.843Z"/><path fill="#0D8790" d="M340.837 464.836C349.233 467.838 354.044 472.674 354.171 481.859C352.69 493.67 341.035 506.853 333.543 515.446L328.146 513.765L327.618 513.388C325.194 512.325 322.719 511.099 320.321 509.957C328.358 501.07 339.157 489.092 342.781 477.373C344.335 472.344 343.276 469.09 340.837 464.836Z"/><path fill="#07A0A7" d="M327.618 513.388C331.389 510.873 338.103 500.203 341.918 496.672C346.481 492.45 350.267 486.424 354.171 481.859C352.69 493.67 341.035 506.853 333.543 515.446L328.146 513.765L327.618 513.388Z"/><path fill="#31AEB8" d="M320.321 509.957C322.719 511.099 325.194 512.325 327.618 513.388L328.146 513.765L333.543 515.446C332.539 516.363 332.439 516.129 331.739 516.706C324.019 523.069 316.508 529.258 308.452 535.22L303.407 532.444L302.897 532.294L297.351 528.645C305.374 523.609 313.404 516.473 320.321 509.957Z"/><path fill="#94CED5" d="M303.407 532.444C306.605 530.097 326.507 514.101 328.146 513.765L333.543 515.446C332.539 516.363 332.439 516.129 331.739 516.706C324.019 523.069 316.508 529.258 308.452 535.22L303.407 532.444Z"/><path fill="#0D8790" d="M260.954 541.843C272.78 541.974 287.36 534.485 297.351 528.645L302.897 532.294L303.407 532.444L308.452 535.22C297.042 541.504 276.988 550.364 264.1 544.026C262.982 543.43 261.973 542.607 260.954 541.843Z"/><path fill="#07A0A7" d="M302.897 532.294L303.407 532.444L308.452 535.22C297.042 541.504 276.988 550.364 264.1 544.026C266.439 543.512 271.538 544.15 273.453 543.872C278.286 543.173 300.692 535.138 302.897 532.294Z"/><path fill="#31AEB8" d="M825.629 105.674C831.442 108.682 840.69 113.482 846.485 117.053C846.683 117.493 846.881 117.934 847.078 118.374L846.974 219.434C869.212 209.467 874.91 213.782 895.005 225.33C907.643 231.559 914.515 237.01 919.342 251.067C924.669 266.577 922.796 286.608 923.17 303.01C924.543 363.131 925.236 404.363 897.878 459.622C876.66 502.617 845.64 540.027 807.317 568.838C801.735 573.044 791.359 581.052 785.421 583.74C784.767 584.296 784.557 584.479 784.206 585.298C779.403 596.507 774.72 606.469 768.683 617.107L767.975 613.202C766.423 598.871 764.84 589.466 758.23 576.275C751.757 563.355 740.151 550.362 725.987 545.971C706.738 540.004 685.391 547.734 668.344 556.416C668.269 550.78 667.995 542.357 668.527 536.939L668.485 535.303C669.31 523.835 668.63 503.401 668.603 491.114L668.613 411.246C668.608 402.16 667.816 380.533 668.728 372.535L668.302 371.635C668.931 368.721 668.376 349.031 668.469 344.364C669.063 314.776 667.785 284.19 668.673 254.736L668.246 254.59C662.121 252.213 652.525 247.398 646.698 244.278C671.862 230.228 698.096 214.682 722.149 198.855C730.604 193.292 738.443 186.324 746.477 180.31C776.888 157.545 800.239 133.496 825.629 105.674ZM846.789 327.329C845.267 386.239 836.91 434.642 819.878 491.006C817.253 499.835 814.326 508.571 811.104 517.199C808.917 523.012 805.343 531.372 803.751 537.108C832.318 509.157 859.649 474.506 875.468 437.718C879.492 428.36 882.482 419.544 885.726 409.882C889.1 397.163 891.639 388.335 893.607 375.437C896.21 357.063 895.602 340.518 895.664 322.029C881.917 337.12 870.352 344.027 851.399 330.862C849.856 329.763 848.293 328.498 846.789 327.329ZM846.962 253.967L846.953 294.638C849.144 293.776 851.22 292.607 853.339 291.584C867.741 284.627 881.926 277.087 896.658 270.839C897.52 266.237 895.582 251.519 894.319 247.152C889.102 229.103 858.974 248.788 848.046 253.351L846.962 253.967Z"/><path fill="#0D8790" d="M846.974 219.434C869.212 209.467 874.91 213.782 895.005 225.33C907.643 231.559 914.515 237.01 919.342 251.067C924.669 266.577 922.796 286.608 923.17 303.01C924.543 363.131 925.236 404.363 897.878 459.622C876.66 502.617 845.64 540.027 807.317 568.838C801.735 573.044 791.359 581.052 785.421 583.74C786.346 579.205 790.81 569.389 792.695 564.422C793.85 561.271 795.502 556.27 797.106 553.539L803.751 537.108C832.318 509.157 859.649 474.506 875.468 437.718C879.492 428.36 882.482 419.544 885.726 409.882C889.1 397.163 891.639 388.335 893.607 375.437C896.21 357.063 895.602 340.518 895.664 322.029C881.917 337.12 870.352 344.027 851.399 330.862C849.856 329.763 848.293 328.498 846.789 327.329L846.925 326.123C846.599 323.685 845.946 313.401 846.741 311.586C846.61 310.219 846.809 308.049 846.895 306.599C846.966 302.612 846.986 298.625 846.953 294.638C849.144 293.776 851.22 292.607 853.339 291.584C867.741 284.627 881.926 277.087 896.658 270.839C897.52 266.237 895.582 251.519 894.319 247.152C889.102 229.103 858.974 248.788 848.046 253.351C847.216 250.023 848.927 244.221 847.211 239.187L847.58 238.891C846.459 236.807 846.94 222.582 846.974 219.434Z"/><path fill="#07A0A7" d="M896.658 270.839C900.324 273.856 904.29 276.491 908.493 278.702C909.779 279.368 910.42 279.414 911.076 280.456L910.934 280.634C911.038 282.069 910.948 281.81 911.355 283.161C909.253 291.74 901.528 316.856 895.664 322.029C881.917 337.12 870.352 344.027 851.399 330.862C849.856 329.763 848.293 328.498 846.789 327.329L846.925 326.123C846.599 323.685 845.946 313.401 846.741 311.586C846.61 310.219 846.809 308.049 846.895 306.599C846.966 302.612 846.986 298.625 846.953 294.638C849.144 293.776 851.22 292.607 853.339 291.584C867.741 284.627 881.926 277.087 896.658 270.839Z"/><path fill="#94CED5" d="M896.658 270.839C900.324 273.856 904.29 276.491 908.493 278.702C901.536 281.447 895.253 284.906 888.46 287.984L846.895 306.599C846.966 302.612 846.986 298.625 846.953 294.638C849.144 293.776 851.22 292.607 853.339 291.584C867.741 284.627 881.926 277.087 896.658 270.839Z"/><path fill="#42B7BF" d="M908.493 278.702C909.779 279.368 910.42 279.414 911.076 280.456L910.934 280.634C905.042 284.205 898.625 286.91 892.506 290.006C877.772 297.461 861.266 304.024 846.741 311.586C846.61 310.219 846.809 308.049 846.895 306.599L888.46 287.984C895.253 284.906 901.536 281.447 908.493 278.702Z"/><path fill="#024F5C" d="M846.925 326.123L846.973 320.936C848.025 321.417 851.076 329.469 851.399 330.862C849.856 329.763 848.293 328.498 846.789 327.329L846.925 326.123Z"/><defs><linearGradient id="gradient_3" gradientUnits="userSpaceOnUse" x1="825.12421" y1="445.95621" x2="865.89325" y2="521.26367"><stop offset="0" stop-color="#4BB1BE"/><stop offset="1" stop-color="#94D3D9"/></linearGradient></defs><path fill="url(#gradient_3)" d="M885.726 409.882C885.933 411.136 885.987 411.539 885.704 412.776L886.047 413.101L886.966 412.993C890.165 415.125 896.425 421.557 898.211 424.892C897.812 426.865 897.356 428.618 897.345 430.63C881.624 476.277 849.478 518.551 812.806 549.383C810.47 551.347 806.225 554.385 804.266 556.487C801.078 555.508 800.013 555.139 797.106 553.539L803.751 537.108C832.318 509.157 859.649 474.506 875.468 437.718C879.492 428.36 882.482 419.544 885.726 409.882Z"/><defs><linearGradient id="gradient_4" gradientUnits="userSpaceOnUse" x1="929.75464" y1="322.9697" x2="881.11938" y2="347.9805"><stop offset="0" stop-color="#007172"/><stop offset="1" stop-color="#0E8392"/></linearGradient></defs><path fill="url(#gradient_4)" d="M911.355 283.161C912.411 285.917 911.754 324.018 911.69 329.661C911.507 345.642 912.619 366.311 909.846 381.726L909.748 381.225C909.599 384.487 909.402 388.397 908.453 391.524L907.817 391.483C908.017 388.911 908.583 385.513 908.951 382.887C903.92 380.406 898.703 377.734 893.607 375.437C896.21 357.063 895.602 340.518 895.664 322.029C901.528 316.856 909.253 291.74 911.355 283.161Z"/><path fill="#31AEB8" d="M893.607 375.437C898.703 377.734 903.92 380.406 908.951 382.887C908.583 385.513 908.017 388.911 907.817 391.483C904.074 404.183 903.522 417.06 897.345 430.63C897.356 428.618 897.812 426.865 898.211 424.892C896.425 421.557 890.165 415.125 886.966 412.993L886.047 413.101L885.704 412.776C885.987 411.539 885.933 411.136 885.726 409.882C889.1 397.163 891.639 388.335 893.607 375.437Z"/><path fill="#94CED5" d="M846.974 219.434C869.212 209.467 874.91 213.782 895.005 225.33C892.828 226.28 882.72 225.881 879.079 226.7C867.584 229.287 857.988 233.835 847.58 238.891C846.459 236.807 846.94 222.582 846.974 219.434Z"/><path fill="#07A0A7" d="M797.106 553.539C800.013 555.139 801.078 555.508 804.266 556.487C801.743 559.499 796.586 563.609 792.695 564.422C793.85 561.271 795.502 556.27 797.106 553.539Z"/><path fill="#94CED5" d="M825.629 105.674C831.442 108.682 840.69 113.482 846.485 117.053C846.683 117.493 846.881 117.934 847.078 118.374C842.979 121.046 834.878 130.434 831.268 134.353C790.055 179.094 738.9 214.406 686.461 244.724C683.192 246.615 671.55 254.386 668.673 254.736L668.246 254.59C662.121 252.213 652.525 247.398 646.698 244.278C671.862 230.228 698.096 214.682 722.149 198.855C730.604 193.292 738.443 186.324 746.477 180.31C776.888 157.545 800.239 133.496 825.629 105.674Z"/><path fill="#024F5C" d="M668.728 372.535L706.684 446.986C712.594 458.623 721.12 474.609 726.182 486.554C710.097 497.414 695.286 510.052 682.03 524.228C678.957 527.483 672.235 536.252 668.527 536.939L668.485 535.303C669.31 523.835 668.63 503.401 668.603 491.114L668.613 411.246C668.608 402.16 667.816 380.533 668.728 372.535Z"/><path fill="#0A7784" d="M847.211 239.187C848.927 244.221 847.216 250.023 848.046 253.351L846.962 253.967C846.926 249.528 846.698 243.466 847.211 239.187Z"/><path fill="#024F5C" d="M715.308 372.065C710.172 368.099 708.097 361.424 710.601 355.304C719.662 333.158 739.677 312.805 760.511 301.437C769.817 296.359 785.081 291.022 795.606 294.183C801.063 295.566 807.324 299.01 810.156 304.044C812.383 308.032 812.916 312.748 811.636 317.133C809.511 324.544 798.299 338.704 792.525 344.294C788.538 347.631 766.622 368.137 763.089 367.806C752.64 375.344 735.901 381.356 723.322 375.926C719.774 374.561 718.437 374.246 715.308 372.065Z"/><defs><linearGradient id="gradient_5" gradientUnits="userSpaceOnUse" x1="784.25092" y1="311.28674" x2="804.6496" y2="328.4064"><stop offset="0" stop-color="#026C72"/><stop offset="1" stop-color="#059BA4"/></linearGradient></defs><path fill="url(#gradient_5)" d="M795.606 294.183C801.063 295.566 807.324 299.01 810.156 304.044C812.383 308.032 812.916 312.748 811.636 317.133C809.511 324.544 798.299 338.704 792.525 344.294C790.185 343.064 787.717 341.917 785.332 340.766C782.809 339.226 779.673 337.607 777.031 336.169C778.172 334.277 780.785 331.676 782.23 329.771C789.503 320.18 801.614 306.944 795.606 294.183Z"/><path fill="#31AEB8" d="M777.031 336.169C779.673 337.607 782.809 339.226 785.332 340.766C787.717 341.917 790.185 343.064 792.525 344.294C788.538 347.631 766.622 368.137 763.089 367.806C761.824 366.918 759.849 365.912 758.435 365.139C757.92 364.771 756.676 364.12 756.068 363.778C754.165 362.45 750.966 360.888 748.829 359.762C761.843 351.797 766.581 346.783 777.031 336.169Z"/><path fill="#94CED5" d="M785.332 340.766C787.717 341.917 790.185 343.064 792.525 344.294C788.538 347.631 766.622 368.137 763.089 367.806C761.824 366.918 759.849 365.912 758.435 365.139C761.288 360.688 780.244 346.566 785.332 340.766Z"/><path fill="#07A0A7" d="M756.068 363.778C756.676 364.12 757.92 364.771 758.435 365.139C759.849 365.912 761.824 366.918 763.089 367.806C752.64 375.344 735.901 381.356 723.322 375.926C726.107 374.564 734.371 372.856 738.05 371.662C744.976 369.413 749.586 366.998 756.068 363.778Z"/><path fill="#0D8790" d="M715.308 372.065C729.339 370.452 736.552 366.523 748.829 359.762C750.966 360.888 754.165 362.45 756.068 363.778C749.586 366.998 744.976 369.413 738.05 371.662C734.371 372.856 726.107 374.564 723.322 375.926C719.774 374.561 718.437 374.246 715.308 372.065Z"/><path fill="#31AEB8" d="M546.399 186.837C551.775 189.054 561.699 195.75 567.483 198.328C567.649 198.68 567.815 199.031 567.981 199.383C567.957 226.596 567.509 254.885 567.889 281.974C563.253 284.026 557.236 285.867 552.291 287.491C531.96 294.32 510.965 298.984 489.654 301.405C482.32 302.266 473.197 302.145 466.425 303.204L489.644 315.519L489.739 402.072C489.69 421.911 489.085 445.069 489.963 464.804L489.098 465.018C481.439 461.826 474.171 456.743 467.412 454.03L466.931 453.925C461.263 457.091 453.214 461.195 448.045 464.649C443.24 467.859 423.591 484.985 422.021 489.819C421.444 491.018 421.399 490.813 420.351 491.808C420.024 491.764 419.698 491.719 419.371 491.674C412.608 482.42 397.433 446.622 391.915 440.154L390.582 439.568C391.974 435.74 390.94 363.355 390.895 352.272C390.01 348.36 390.997 341.708 390.213 337.587C390.038 336.667 389.955 336.903 388.933 336.33C382.661 333.739 374.762 329.276 368.278 326.181C373.701 323.253 379.266 320.237 384.556 317.057C416.169 298.051 448.363 279.129 476.458 255.062C496.7 237.723 516.728 220.29 534.378 200.302C538.339 195.816 542.27 191.117 546.399 186.837Z"/><path fill="#0D8790" d="M466.425 303.204L489.644 315.519L489.739 402.072C489.69 421.911 489.085 445.069 489.963 464.804L489.098 465.018C481.439 461.826 474.171 456.743 467.412 454.03L466.931 453.925C466.433 453.602 465.484 452.781 464.93 452.938C453.667 456.127 440.438 462.095 430.152 452.371L429.789 451.828C418.316 443.324 431.466 424.239 437.4 416.456C445.326 406.061 454.464 396.037 465.961 389.588C466.279 388.918 466.427 310.43 466.425 303.204Z"/><path fill="#024F5C" d="M465.961 389.588C467.161 392.392 466.665 438.525 466.67 445.022C458.706 448.369 448.302 451.675 439.655 452.451C436.579 452.727 432.354 451.638 429.789 451.828C418.316 443.324 431.466 424.239 437.4 416.456C445.326 406.061 454.464 396.037 465.961 389.588Z"/><path fill="#07A0A7" d="M430.152 452.371C445.358 459.078 461.579 447.632 466.718 451.409C467.202 452.65 467.221 452.713 467.412 454.03L466.931 453.925C466.433 453.602 465.484 452.781 464.93 452.938C453.667 456.127 440.438 462.095 430.152 452.371Z"/><path fill="#94CED5" d="M546.399 186.837C551.775 189.054 561.699 195.75 567.483 198.328C567.649 198.68 567.815 199.031 567.981 199.383C564.541 201.873 551.097 217.286 546.871 221.479C532.355 235.882 517.04 250.565 501.06 263.36C478.19 281.522 454.208 298.237 429.254 313.408C420.827 318.485 412.349 323.477 403.821 328.384C400.694 330.19 393.459 334.066 390.8 335.96C390.981 341.149 391.123 347.064 390.895 352.272C390.01 348.36 390.997 341.708 390.213 337.587C390.038 336.667 389.955 336.903 388.933 336.33C382.661 333.739 374.762 329.276 368.278 326.181C373.701 323.253 379.266 320.237 384.556 317.057C416.169 298.051 448.363 279.129 476.458 255.062C496.7 237.723 516.728 220.29 534.378 200.302C538.339 195.816 542.27 191.117 546.399 186.837Z"/><path fill="#024F5C" d="M668.344 556.416C685.391 547.734 706.738 540.004 725.987 545.971C740.151 550.362 751.757 563.355 758.23 576.275C764.84 589.466 766.423 598.871 767.975 613.202L768.683 617.107C768.437 618.686 768.261 619.874 767.853 621.438L766.861 622.113C765.001 621.632 762.948 619.442 761.463 618.058L761.346 619.681C761.185 619.801 760.071 620.408 760.004 620.377C750.249 615.754 741.355 609.757 731.234 605.834C726.85 604.135 723.328 603.222 718.726 602.235C696.214 602.568 688.281 604.227 668.066 613.902C633.097 634.277 603.749 677.299 581.607 710.429C580.391 710.375 578.166 710.496 576.874 710.529L577.008 710.123C578.075 700.86 580.788 689.147 583.265 680.123C596.735 631.045 622.753 582.308 668.344 556.416Z"/><defs><linearGradient id="gradient_6" gradientUnits="userSpaceOnUse" x1="659.08789" y1="666.04413" x2="628.60052" y2="641.71198"><stop offset="0" stop-color="#007584"/><stop offset="1" stop-color="#0CABB3"/></linearGradient></defs><path fill="url(#gradient_6)" d="M577.008 710.123C578.775 709.132 585.733 698.701 587.335 696.469C611.628 662.617 635.411 623.77 674.99 606.127C685.716 601.345 707.616 597.537 718.726 602.235C696.214 602.568 688.281 604.227 668.066 613.902C633.097 634.277 603.749 677.299 581.607 710.429C580.391 710.375 578.166 710.496 576.874 710.529L577.008 710.123Z"/><path fill="#0A7784" d="M767.975 613.202L768.683 617.107C768.437 618.686 768.261 619.874 767.853 621.438L766.861 622.113C765.001 621.632 762.948 619.442 761.463 618.058L761.338 617.607L761.777 617.042C763.708 616.914 764.548 616.803 766.447 616.43C767.896 615.259 767.447 615.505 767.975 613.202Z"/><path fill="#31AEB8" d="M668.066 613.902C688.281 604.227 696.214 602.568 718.726 602.235C723.328 603.222 726.85 604.135 731.234 605.834C741.355 609.757 750.249 615.754 760.004 620.377C760.071 620.408 761.185 619.801 761.346 619.681C763.24 620.821 763.644 621.333 765.24 622.929C745.218 655.009 701.58 723.17 668.432 740.106L668.447 658.583C668.45 644.61 668.873 627.619 668.066 613.902Z"/><path fill="#0D8790" d="M662.207 359.989C664.427 363.329 666.511 367.955 668.302 371.635L668.728 372.535C667.816 380.533 668.608 402.16 668.613 411.246L668.603 491.114C668.63 503.401 669.31 523.835 668.485 535.303C654.467 529.236 637.182 532.038 623.114 536.817C623.349 528.013 631.661 499.192 633.973 488.53C639.329 463.83 645.111 438.77 650.577 414.073C652.964 403.401 655.164 392.689 657.177 381.94C658.148 376.913 660.292 364.222 662.207 359.989Z"/><path fill="#E3ECED" d="M646.698 244.278C652.525 247.398 662.121 252.213 668.246 254.59C665.987 258.32 596.829 290.148 588.346 293.622C562.053 304.391 518.122 316.43 489.644 315.519L466.425 303.204C473.197 302.145 482.32 302.266 489.654 301.405C510.965 298.984 531.96 294.32 552.291 287.491C557.236 285.867 563.253 284.026 567.889 281.974C596.011 272.376 620.492 257.154 646.698 244.278Z"/><path fill="#0D8790" d="M488.635 540.317C491.492 542.706 490.218 544.775 491.629 548.147L491.772 548.925C493.19 556.924 493.215 565.881 494.859 573.876C504.674 621.618 519.17 669.374 553.908 705.165C558.825 710.231 571.289 719.387 573.632 725.243C565.248 720.641 558.404 716.919 550.718 711.049C545.934 707.395 542.177 703.596 537.643 699.977C533.347 696.159 530.264 693.2 526.386 688.977L519.122 679.841C516 676.614 511.877 670.219 509.313 666.343C501.312 655.761 493.34 633.984 488.368 621.36C486.63 616.949 484.439 609.282 482.21 605.454C481.822 601.15 480.417 597.327 479.191 593.171L478.404 591.543C478.997 589.099 474.871 575.578 473.88 571.984C481.631 561.95 485.062 552.219 488.635 540.317Z"/><path fill="#07A0A7" d="M617.009 534.521C620.514 520.911 624.904 507.532 628.157 493.434C635.42 462.608 642.444 431.702 649.152 400.751C650.396 395.011 657.247 359.03 659.143 357.669C660.607 357.97 661.162 358.864 662.207 359.989C660.292 364.222 658.148 376.913 657.177 381.94C655.164 392.689 652.964 403.401 650.577 414.073C645.111 438.77 639.329 463.83 633.973 488.53C631.661 499.192 623.349 528.013 623.114 536.817C620.639 537.1 619.203 535.832 617.009 534.521Z"/><path fill="#42B7BF" d="M576.874 710.529C578.166 710.496 580.391 710.375 581.607 710.429C580.152 713.038 577.342 717.331 575.239 719.394C575.753 716.433 576.298 713.478 576.874 710.529Z"/><path fill="#0A7784" d="M489.621 534.458L490.664 533.664C491.15 537.959 491.495 543.763 491.629 548.147C490.218 544.775 491.492 542.706 488.635 540.317C489.036 538.358 489.316 536.432 489.621 534.458Z"/><path fill="#024F5C" d="M537.578 457.951C522.78 441.608 560.905 404.515 573.405 395.54C584.292 387.723 602.07 379.23 615.828 381.495C626.129 384.331 631.989 390.837 631.153 401.847C628.094 414.781 615.811 425.64 607.019 435.424C603.801 438.742 586.848 451.876 582.962 453.327C571.382 459.23 555.255 465.801 542.205 461.306C540.07 460.096 539.486 459.563 537.578 457.951Z"/><path fill="#0D8790" d="M615.828 381.495C626.129 384.331 631.989 390.837 631.153 401.847C628.094 414.781 615.811 425.64 607.019 435.424C605.361 434.843 603.582 433.995 601.958 433.268L601.009 432.337C598.67 432.167 596.649 430.892 594.568 429.806C602.789 421.438 617.02 406.353 619.539 394.562C620.715 389.061 618.855 385.644 615.828 381.495Z"/><path fill="#07A0A7" d="M601.009 432.337C608.413 428.295 618.925 414.686 625.147 408.336C627.339 406.099 628.349 404.097 631.153 401.847C628.094 414.781 615.811 425.64 607.019 435.424C605.361 434.843 603.582 433.995 601.958 433.268L601.009 432.337Z"/><path fill="#31AEB8" d="M594.568 429.806C596.649 430.892 598.67 432.167 601.009 432.337L601.958 433.268C603.582 433.995 605.361 434.843 607.019 435.424C603.801 438.742 586.848 451.876 582.962 453.327C582.009 452.786 579.094 451.694 577.938 451.225L575.955 450.216C574.584 449.313 572.86 448.418 571.406 447.609C580.901 441.648 586.471 437.262 594.568 429.806Z"/><path fill="#94CED5" d="M601.958 433.268C603.582 433.995 605.361 434.843 607.019 435.424C603.801 438.742 586.848 451.876 582.962 453.327C582.009 452.786 579.094 451.694 577.938 451.225C578.934 450.198 583.651 447.173 585.195 446.119C591.106 442.082 596.439 437.827 601.958 433.268Z"/><path fill="#07A0A7" d="M575.955 450.216L577.938 451.225C579.094 451.694 582.009 452.786 582.962 453.327C571.382 459.23 555.255 465.801 542.205 461.306C544.514 460.339 550.315 460.54 554.106 459.608C563.266 457.356 567.757 453.807 575.955 450.216Z"/><path fill="#0D8790" d="M537.578 457.951C549.423 459.363 561.319 453.045 571.406 447.609C572.86 448.418 574.584 449.313 575.955 450.216C567.757 453.807 563.266 457.356 554.106 459.608C550.315 460.54 544.514 460.339 542.205 461.306C540.07 460.096 539.486 459.563 537.578 457.951Z"/></svg>