<?xml version="1.0" encoding="utf-8" ?><svg xmlns="http://www.w3.org/2000/svg" xmlns:xlink="http://www.w3.org/1999/xlink" width="1024" height="1024" viewBox="0 0 1024 1024"><path fill="#1E49A0" d="M358.176 254.348C359.342 247.983 375.079 219.701 379.495 212.794C413.256 160 467.442 113.093 529.507 98.5271C551.775 93.0265 577.701 93.453 598.177 105.162C612.737 113.488 628.573 122.81 642.986 131.818C662.017 141.957 674.083 157.583 680.069 178.107C691.849 218.557 679.045 258.145 660.13 293.95C639.989 332.075 604.991 359.155 586.748 397.98C579.864 412.632 577.624 436.384 577 452.547C570.074 455.681 562.462 458.355 555.786 461.459C539.127 468.296 521.244 476.036 504.006 481.334C501.16 482.209 493.165 479.636 491.17 477.313L490.278 476.875C487.229 475.036 483.995 472.971 480.774 471.516C470.301 465.51 455.468 456.163 445.513 449.591C444.405 417.222 451.526 385.101 466.212 356.234C468.692 351.352 472.498 344.083 475.675 339.76C481.705 327.388 505.495 299.362 514.747 288.188C531.555 266.299 536.037 257.471 541.004 230.407C533.365 232.476 522.379 239.974 516.53 245.257C495.406 264.338 483.265 289.631 478.848 317.453C474.065 320.511 456.088 327.727 449.501 330.605C437.673 335.856 425.801 341.007 413.886 346.058C407.839 348.64 398.773 352.745 392.656 354.622C391.134 353.858 388.809 352.785 387.411 351.949C384.653 350.445 381.834 348.791 379.169 347.127C367.27 339.695 354.756 332.879 343.087 325.115C343.26 304.268 349.613 273.477 358.176 254.348Z"/><defs><linearGradient id="gradient_0" gradientUnits="userSpaceOnUse" x1="499.89896" y1="268.77393" x2="476.72076" y2="106.01126"><stop offset="0" stop-color="#5D7EC0"/><stop offset="1" stop-color="#6F9BED"/></linearGradient></defs><path fill="url(#gradient_0)" d="M358.176 254.348C359.342 247.983 375.079 219.701 379.495 212.794C413.256 160 467.442 113.093 529.507 98.5271C551.775 93.0265 577.701 93.453 598.177 105.162C612.737 113.488 628.573 122.81 642.986 131.818C641.172 132.117 630.754 127.949 627.692 127.074L627.414 127.108C621.831 127.849 611.72 125.514 605.738 125.174C601.794 124.949 596.768 125.505 592.769 125.827C561.218 130.257 534.601 141.431 507.863 158.356C505.649 159.758 506.622 157.023 504.455 158.236C501.818 159.934 501.02 161.33 497.88 162.411C492.139 165.913 482.664 174.249 477.624 178.71C451.507 201.826 429.55 228.692 412.749 259.278C411.626 261.322 405.528 272.604 405.167 274.063C401.607 277.867 402.622 279.655 399.803 283.052C399.365 283.469 398.818 283.282 398.382 283.151C387.021 279.719 375.443 276.863 363.778 274.66C360.806 274.098 356.687 273.292 354.404 271.268C352.895 266.385 358.808 259.314 358.176 254.348Z"/><path fill="#5E7DC6" d="M584.345 125.055C588.8 125.824 590.199 123.82 592.769 125.827C561.218 130.257 534.601 141.431 507.863 158.356C505.649 159.758 506.622 157.023 504.455 158.236C501.818 159.934 501.02 161.33 497.88 162.411C509.122 149.672 566.22 125.651 584.345 125.055Z"/><path fill="#36559F" d="M584.345 125.055C595.841 122.482 616.764 122.402 627.692 127.074L627.414 127.108C621.831 127.849 611.72 125.514 605.738 125.174C601.794 124.949 596.768 125.505 592.769 125.827C590.199 123.82 588.8 125.824 584.345 125.055Z"/><defs><linearGradient id="gradient_1" gradientUnits="userSpaceOnUse" x1="586.50232" y1="291.52521" x2="475.97864" y2="292.73148"><stop offset="0" stop-color="#264996"/><stop offset="1" stop-color="#7090D4"/></linearGradient></defs><path fill="url(#gradient_1)" d="M541.004 230.407C553.841 223.432 566.346 221.158 579.422 228.483C580.88 230.388 583.481 233.66 584.355 235.821C597.411 268.093 567.44 308.224 547.911 329.872C539.96 338.377 534.071 346.386 527.491 355.953C526.263 357.739 519.779 367.428 518.737 368.537L518.595 368.382C518.26 366.419 525.58 359.341 522.554 354.492L521.81 354.37L519.967 355.734C511.57 357.196 486.03 345.53 477.43 342.085C477.43 342.085 476.6 340.284 476.502 340.072L475.675 339.76C481.705 327.388 505.495 299.362 514.747 288.188C531.555 266.299 536.037 257.471 541.004 230.407Z"/><path fill="#5E7DC6" d="M514.747 288.188C518.809 288.204 519.226 290.675 518.707 293.99C515.086 317.113 525.322 350.657 488.135 338.696C485.706 337.914 483.156 337.684 480.721 336.513L479.848 334.829L476.502 340.072L475.675 339.76C481.705 327.388 505.495 299.362 514.747 288.188Z"/><defs><linearGradient id="gradient_2" gradientUnits="userSpaceOnUse" x1="458.02658" y1="462.11365" x2="505.59143" y2="347.01263"><stop offset="0" stop-color="#284691"/><stop offset="1" stop-color="#476FBC"/></linearGradient></defs><path fill="url(#gradient_2)" d="M445.513 449.591C444.405 417.222 451.526 385.101 466.212 356.234C468.692 351.352 472.498 344.083 475.675 339.76L476.502 340.072C476.6 340.284 477.43 342.085 477.43 342.085C486.03 345.53 511.57 357.196 519.967 355.734L521.81 354.37L522.554 354.492C525.58 359.341 518.26 366.419 518.595 368.382L518.737 368.537C502.961 396.652 492.076 419.002 489.58 452.345C490.305 455.665 490.587 456.692 490.562 460.115C490.533 466.487 490.873 470.999 491.17 477.313L490.278 476.875C487.229 475.036 483.995 472.971 480.774 471.516C470.301 465.51 455.468 456.163 445.513 449.591Z"/><path fill="#122F71" d="M489.58 452.345C490.305 455.665 490.587 456.692 490.562 460.115C490.533 466.487 490.873 470.999 491.17 477.313L490.278 476.875C488.423 469.035 489.148 460.336 489.58 452.345Z"/><path fill="#36559F" d="M358.176 254.348C358.808 259.314 352.895 266.385 354.404 271.268C356.687 273.292 360.806 274.098 363.778 274.66C375.443 276.863 387.021 279.719 398.382 283.151C398.818 283.282 399.365 283.469 399.803 283.052C402.622 279.655 401.607 277.867 405.167 274.063C394.081 298.653 385.818 324.654 387.411 351.949C384.653 350.445 381.834 348.791 379.169 347.127C367.27 339.695 354.756 332.879 343.087 325.115C343.26 304.268 349.613 273.477 358.176 254.348Z"/><path fill="#0D2F7D" d="M579.422 228.483C582.152 229.643 585.356 234.736 586.25 237.533C595.991 268.006 575.605 300.077 556.133 322.141C553.848 324.73 551.67 328.196 549.046 330.311L548.6 331.025C546.517 334.291 542.674 338.375 540.178 341.531C518.39 369.082 500.755 401.767 493.416 436.338C491.659 444.615 491.865 452.206 490.562 460.115C490.587 456.692 490.305 455.665 489.58 452.345C492.076 419.002 502.961 396.652 518.737 368.537C519.779 367.428 526.263 357.739 527.491 355.953C534.071 346.386 539.96 338.377 547.911 329.872C567.44 308.224 597.411 268.093 584.355 235.821C583.481 233.66 580.88 230.388 579.422 228.483Z"/><path fill="#AEB6C5" d="M590.753 143.923C614.569 137.491 644.021 147.714 657.706 168.63L658.495 168.485C662.543 171.772 668.834 185.374 667.906 190.431C669.768 200.914 669.364 207.522 670.565 216.394C675.559 242.451 656.236 282.31 642.051 303.715C636.861 311.547 625.437 325.053 618.995 332.615C588.534 368.375 565.317 397.348 564.359 446.635C562.038 448.355 559.652 447.431 557.435 446.218C553.271 446.606 514.731 463.362 508.534 466.074C508.884 414.554 527.06 381.883 558.848 342.649C572.266 327.066 583.285 313.313 593.529 295.297C607.695 270.383 617.228 226.985 586.39 209.924C574.695 203.453 559.597 205.412 547.139 209.035C527.407 214.773 499.49 233.506 489.689 252.248C489.751 254.619 482.122 265.805 480.79 268.593C480.571 269.05 481.098 270.346 481.3 270.901C477.304 279.988 470.48 294.39 470.39 304.178C470.93 303.247 471.502 298.896 472.11 297.378C475.628 288.588 482.425 266.071 488.731 259.62L489.338 259.556C488.196 262.145 484.67 267.462 482.976 271.034C479.531 278.296 477.163 284.94 474.21 292.308C472.41 296.797 471.579 305.549 469.423 308.834C467.831 309.404 465.832 309.093 464.553 307.967C459.778 308.066 416.636 329.517 407.738 332.482C412.338 296.711 425.764 267.107 447.153 237.679C475.205 199.084 513.34 166.988 558.718 150.761C565.342 148.392 583.518 145.021 590.753 143.923Z"/><path fill="#0D2F7D" d="M670.565 216.394C675.559 242.451 656.236 282.31 642.051 303.715C636.861 311.547 625.437 325.053 618.995 332.615C588.534 368.375 565.317 397.348 564.359 446.635C562.038 448.355 559.652 447.431 557.435 446.218C557.847 446.037 559.588 445.196 559.631 444.746C560.386 436.883 560.91 429.518 562.386 421.717C564.538 410.78 568.175 400.188 573.197 390.236C574.026 387.75 577.827 380.878 579.232 378.498C596.491 349.242 622.784 325.915 641.2 297.306C649.215 284.854 655.963 270.49 660.751 256.466C662.444 251.507 663.442 244.933 665.062 240.366L665.321 239.65L665.619 240.014C666.297 239.396 670.281 218.635 670.565 216.394Z"/><path fill="#122F71" d="M573.197 390.236C574.289 392.233 568.352 405.852 567.501 409.136C564.908 419.139 559.977 435.921 560.847 446.055L561.419 446.907L562.244 446.839C563.264 444.791 563.354 442.875 563.681 440.591C563.873 442.424 564.054 444.871 564.359 446.635C562.038 448.355 559.652 447.431 557.435 446.218C557.847 446.037 559.588 445.196 559.631 444.746C560.386 436.883 560.91 429.518 562.386 421.717C564.538 410.78 568.175 400.188 573.197 390.236Z"/><path fill="#5B6275" d="M590.753 143.923C614.569 137.491 644.021 147.714 657.706 168.63L658.495 168.485C662.543 171.772 668.834 185.374 667.906 190.431L666.638 192.414C667.532 198.868 667.881 202.797 667.461 209.289C662.8 190.108 665.825 190.121 654.81 171.117C650.381 168.569 645.316 161.858 641.228 158.842C637.691 156.231 631.32 154.404 628.847 150.291C614.66 144.338 605.777 144.131 590.753 143.923Z"/><path fill="#8E97AB" d="M628.847 150.291C636.76 152.708 652.39 162.918 654.81 171.117C650.381 168.569 645.316 161.858 641.228 158.842C637.691 156.231 631.32 154.404 628.847 150.291Z"/><path fill="#0D2F7D" d="M657.706 168.63L658.495 168.485C662.543 171.772 668.834 185.374 667.906 190.431L666.638 192.414C666.4 191.81 665.225 186.36 664.733 184.78C662.83 178.663 660.547 174.294 657.706 168.63Z"/><path fill="#122F71" d="M489.689 252.248C489.751 254.619 482.122 265.805 480.79 268.593C480.571 269.05 481.098 270.346 481.3 270.901C477.304 279.988 470.48 294.39 470.39 304.178C470.93 303.247 471.502 298.896 472.11 297.378C475.628 288.588 482.425 266.071 488.731 259.62L489.338 259.556C488.196 262.145 484.67 267.462 482.976 271.034C479.531 278.296 477.163 284.94 474.21 292.308C472.41 296.797 471.579 305.549 469.423 308.834C467.831 309.404 465.832 309.093 464.553 307.967C466.607 304.476 469.034 294.475 470.529 290.01C474.998 276.538 481.456 263.81 489.689 252.248Z"/><path fill="#00051A" d="M666.638 192.414L667.906 190.431C669.768 200.914 669.364 207.522 670.565 216.394C670.281 218.635 666.297 239.396 665.619 240.014L665.321 239.65C667.271 227.92 667.915 221.183 667.461 209.289C667.881 202.797 667.532 198.868 666.638 192.414Z"/><path fill="#5E7DC6" d="M466.446 309.437L468.364 309.81C466.735 312.322 451.602 317.847 448.157 319.334L409.155 336.362L407.287 336.608C407.805 335.14 459.439 313.371 466.446 309.437Z"/><path fill="#5E7DC6" d="M560.294 448.022L561.241 448.332C559.647 449.427 549.499 453.331 546.96 454.392L510.152 469.87C509.548 470.05 509.9 470.027 509.104 469.734C511.188 467.405 554.296 450.242 560.294 448.022Z"/><path fill="#36559F" d="M556.112 208.316L557.228 208.324C557.761 208.869 558.291 209.353 558.878 209.836C548.188 211.24 530.973 218.6 522.523 225.146L520.679 225.473C522.931 220.655 549.998 209.863 556.112 208.316Z"/><path fill="#1E49A0" d="M305.662 442.658C324.942 452.788 347.247 462.829 367.18 471.943L403.858 489.079L430.086 501.149C434.191 503.031 442.008 506.787 446.095 507.863C446.109 502.715 446.205 493.765 445.422 488.904C448.871 484.802 473.806 475.004 480.774 471.516C483.995 472.971 487.229 475.036 490.278 476.875L491.17 477.313C493.165 479.636 501.16 482.209 504.006 481.334C521.244 476.036 539.127 468.296 555.786 461.459C563.468 466.136 571.057 470.964 578.548 475.94L578.728 477.276C578.937 487.761 579.047 498.248 579.057 508.736L578.872 516.465C578.822 520.596 578.461 533.664 579.08 537.27C581.236 537.763 584.463 542.196 585.56 543.994C590.07 551.379 590.195 558.482 590.088 566.826C590.055 569.362 590.275 572.66 589.733 575.079C589.541 575.94 589.27 577.384 588.999 578.167C588.759 587.226 585.765 594.34 579.154 600.658C568.923 610.436 550.802 612.984 547.239 628.66C547.173 628.762 547.107 628.864 547.041 628.966C531.813 631.383 521.275 631.864 505.923 632.16C503.624 633.689 494.559 632.32 491.322 632C494.356 633.856 496.472 632.421 498.551 634.116L498.798 635.055C496.528 636.442 496.131 633.875 494.63 635.571C467.528 633.42 432.978 623.268 412.175 605.724C404.102 598.916 393.808 586.713 392.899 575.692C393.444 571.877 393.233 567.514 393.164 563.617C387.405 563.65 379.34 564.345 373.497 564.926L340.609 540.793C332.039 534.601 281.474 499.193 278.123 494.317C276.813 492.411 276.13 491.774 273.897 490.989C273.871 486.631 271.463 481.373 271.543 479.822C271.828 474.321 274.109 461.221 277.762 457.071C279.45 457.555 281.129 458.07 282.799 458.616C285.438 455.783 288.233 453.099 291.17 450.576C294.442 447.802 301.28 442.317 305.662 442.658Z"/><defs><linearGradient id="gradient_3" gradientUnits="userSpaceOnUse" x1="379.73941" y1="616.19312" x2="405.58673" y2="459.69562"><stop offset="0" stop-color="#959FB3"/><stop offset="1" stop-color="#C1C9D5"/></linearGradient></defs><path fill="url(#gradient_3)" d="M305.662 442.658C324.942 452.788 347.247 462.829 367.18 471.943L403.858 489.079L430.086 501.149C434.191 503.031 442.008 506.787 446.095 507.863L446.12 516.509L446.093 520.875C445.785 525.748 445.927 530.704 445.986 535.593C438.934 541.354 433.284 553.303 435.065 562.416C435.033 568.655 434.618 572.793 436.395 578.856C440.184 586.783 442.367 588.883 448.981 594.673C451.984 599.805 458.402 602.317 459.129 604.107L458.451 604.89C467.879 609.999 499.058 622.398 501.926 630.38L501.521 631.28L499.425 631.79C501.755 632.006 503.584 632.116 505.923 632.16C503.624 633.689 494.559 632.32 491.322 632C494.356 633.856 496.472 632.421 498.551 634.116L498.798 635.055C496.528 636.442 496.131 633.875 494.63 635.571C467.528 633.42 432.978 623.268 412.175 605.724C404.102 598.916 393.808 586.713 392.899 575.692C393.444 571.877 393.233 567.514 393.164 563.617C387.405 563.65 379.34 564.345 373.497 564.926L340.609 540.793C332.039 534.601 281.474 499.193 278.123 494.317C276.813 492.411 276.13 491.774 273.897 490.989C273.871 486.631 271.463 481.373 271.543 479.822C271.828 474.321 274.109 461.221 277.762 457.071C279.45 457.555 281.129 458.07 282.799 458.616C285.438 455.783 288.233 453.099 291.17 450.576C294.442 447.802 301.28 442.317 305.662 442.658Z"/><path fill="#768093" d="M273.897 490.989C273.871 486.631 271.463 481.373 271.543 479.822C271.828 474.321 274.109 461.221 277.762 457.071C279.45 457.555 281.129 458.07 282.799 458.616L363.647 517.24L388.061 535.088C391.757 537.836 396.605 541.808 400.24 544.207C396.506 551.271 394.074 555.537 393.164 563.617C387.405 563.65 379.34 564.345 373.497 564.926L340.609 540.793C332.039 534.601 281.474 499.193 278.123 494.317C276.813 492.411 276.13 491.774 273.897 490.989Z"/><defs><linearGradient id="gradient_4" gradientUnits="userSpaceOnUse" x1="515.47931" y1="603.31824" x2="404.77509" y2="548.42047"><stop offset="0" stop-color="#9BA4B9"/><stop offset="1" stop-color="#C6CEDA"/></linearGradient></defs><path fill="url(#gradient_4)" d="M402.631 584.905C401.345 581.154 400.25 578.261 399.664 574.327C395.231 544.597 422.497 526.424 446.12 516.509L446.093 520.875C445.785 525.748 445.927 530.704 445.986 535.593C438.934 541.354 433.284 553.303 435.065 562.416C435.033 568.655 434.618 572.793 436.395 578.856C440.184 586.783 442.367 588.883 448.981 594.673C451.984 599.805 458.402 602.317 459.129 604.107L458.451 604.89C467.879 609.999 499.058 622.398 501.926 630.38L501.521 631.28L499.425 631.79C501.755 632.006 503.584 632.116 505.923 632.16C503.624 633.689 494.559 632.32 491.322 632C489.966 632.034 486.689 631.51 485.22 631.286C456.726 626.951 425.23 616.726 406.942 593.146C405.73 591.582 402.365 586.694 402.631 584.905Z"/><path fill="#5B6275" d="M402.631 584.905C420.364 616.933 464.986 629.339 499.425 631.79C501.755 632.006 503.584 632.116 505.923 632.16C503.624 633.689 494.559 632.32 491.322 632C489.966 632.034 486.689 631.51 485.22 631.286C456.726 626.951 425.23 616.726 406.942 593.146C405.73 591.582 402.365 586.694 402.631 584.905Z"/><path fill="#8E97AB" d="M436.395 578.856C440.184 586.783 442.367 588.883 448.981 594.673C451.984 599.805 458.402 602.317 459.129 604.107L458.451 604.89C451.183 601.92 447.491 595.127 442.758 590.847C441.556 591.077 440.99 591.313 439.819 591.019C437.76 587.548 436.776 582.852 436.395 578.856Z"/><defs><linearGradient id="gradient_5" gradientUnits="userSpaceOnUse" x1="498.44623" y1="613.70367" x2="521.41608" y2="542.13116"><stop offset="0" stop-color="#444A5B"/><stop offset="1" stop-color="#7D8AA5"/></linearGradient></defs><path fill="url(#gradient_5)" d="M445.422 488.904C446.641 490.641 445.767 489.632 446.952 490.312C461.503 498.66 476.723 507.21 491.007 515.972C491.12 530.272 491.457 544.527 491.138 558.832C491.074 561.706 491.042 564.639 491.278 567.503C489.28 566.751 487.207 565.097 484.472 563.984L484.562 575.386C481.888 588.944 495.712 591.173 494.74 597.021C493.528 597.756 492.29 597.511 490.814 597.464C502.81 600.941 525.658 600.48 537.811 597.282C541.205 596.045 545.141 595.36 548.719 594.303C562.061 590.372 576.561 584.076 584.531 572.058C587.781 567.155 588.47 562.744 589.257 557.071C589.546 563.067 589.442 569.083 589.733 575.079C589.541 575.94 589.27 577.384 588.999 578.167C588.759 587.226 585.765 594.34 579.154 600.658C568.923 610.436 550.802 612.984 547.239 628.66C547.173 628.762 547.107 628.864 547.041 628.966C531.813 631.383 521.275 631.864 505.923 632.16C503.584 632.116 501.755 632.006 499.425 631.79L501.521 631.28L501.926 630.38C499.058 622.398 467.879 609.999 458.451 604.89L459.129 604.107C458.402 602.317 451.984 599.805 448.981 594.673C442.367 588.883 440.184 586.783 436.395 578.856C434.618 572.793 435.033 568.655 435.065 562.416C433.284 553.303 438.934 541.354 445.986 535.593C445.927 530.704 445.785 525.748 446.093 520.875L446.12 516.509L446.095 507.863C446.109 502.715 446.205 493.765 445.422 488.904Z"/><path fill="#36559F" d="M445.422 488.904C446.641 490.641 445.767 489.632 446.952 490.312C461.503 498.66 476.723 507.21 491.007 515.972C491.12 530.272 491.457 544.527 491.138 558.832C491.074 561.706 491.042 564.639 491.278 567.503C489.28 566.751 487.207 565.097 484.472 563.984C481.515 560.81 452.464 544.261 446.472 540.83C446.475 534.563 446.551 527.037 446.093 520.875L446.12 516.509L446.095 507.863C446.109 502.715 446.205 493.765 445.422 488.904Z"/><defs><linearGradient id="gradient_6" gradientUnits="userSpaceOnUse" x1="495.71466" y1="596.11554" x2="436.01712" y2="547.87976"><stop offset="0" stop-color="#80899C"/><stop offset="1" stop-color="#9BA6B9"/></linearGradient></defs><path fill="url(#gradient_6)" d="M446.093 520.875C446.551 527.037 446.475 534.563 446.472 540.83C452.464 544.261 481.515 560.81 484.472 563.984L484.562 575.386C481.888 588.944 495.712 591.173 494.74 597.021C493.528 597.756 492.29 597.511 490.814 597.464C469.253 593.408 446.539 586.635 436.318 565.442L436.338 566.283L435.935 566.044C435.245 564.641 435.256 563.944 435.065 562.416C433.284 553.303 438.934 541.354 445.986 535.593C445.927 530.704 445.785 525.748 446.093 520.875Z"/><path fill="#8E97AB" d="M448.981 594.673C481.481 616.453 527.036 617.951 562.626 602.379C573.519 597.613 584.653 589.695 588.999 578.167C588.759 587.226 585.765 594.34 579.154 600.658C568.923 610.436 550.802 612.984 547.239 628.66C547.173 628.762 547.107 628.864 547.041 628.966C531.813 631.383 521.275 631.864 505.923 632.16C503.584 632.116 501.755 632.006 499.425 631.79L501.521 631.28L501.926 630.38C499.058 622.398 467.879 609.999 458.451 604.89L459.129 604.107C458.402 602.317 451.984 599.805 448.981 594.673Z"/><defs><linearGradient id="gradient_7" gradientUnits="userSpaceOnUse" x1="520.88812" y1="502.23892" x2="500.90112" y2="461.32974"><stop offset="0" stop-color="#3367C7"/><stop offset="1" stop-color="#618CE0"/></linearGradient></defs><path fill="url(#gradient_7)" d="M555.786 461.459C563.468 466.136 571.057 470.964 578.548 475.94C574.297 477.028 569.212 479.645 564.947 481.312C540.808 490.745 518.138 503.493 494.259 513.569C493.152 514.036 491.818 515.11 491.007 515.972C476.723 507.21 461.503 498.66 446.952 490.312C445.767 489.632 446.641 490.641 445.422 488.904C448.871 484.802 473.806 475.004 480.774 471.516C483.995 472.971 487.229 475.036 490.278 476.875L491.17 477.313C493.165 479.636 501.16 482.209 504.006 481.334C521.244 476.036 539.127 468.296 555.786 461.459Z"/><defs><linearGradient id="gradient_8" gradientUnits="userSpaceOnUse" x1="554.76556" y1="601.1369" x2="569.72357" y2="535.76306"><stop offset="0" stop-color="#838C9F"/><stop offset="1" stop-color="#A6AFC0"/></linearGradient></defs><path fill="url(#gradient_8)" d="M579.08 537.27C581.236 537.763 584.463 542.196 585.56 543.994C590.07 551.379 590.195 558.482 590.088 566.826C590.055 569.362 590.275 572.66 589.733 575.079C589.442 569.083 589.546 563.067 589.257 557.071C588.47 562.744 587.781 567.155 584.531 572.058C576.561 584.076 562.061 590.372 548.719 594.303C545.141 595.36 541.205 596.045 537.811 597.282C536.647 597.072 535.759 597.045 534.768 596.494C539.933 590.009 541.87 583.649 539.993 575.463C540.548 570.264 540.292 560.624 540.276 555.051C542.544 554.777 577.757 539.072 579.08 537.27Z"/><defs><linearGradient id="gradient_9" gradientUnits="userSpaceOnUse" x1="500.43884" y1="589.63849" x2="525.51581" y2="548.31683"><stop offset="0" stop-color="#292D39"/><stop offset="1" stop-color="#5E626D"/></linearGradient></defs><path fill="url(#gradient_9)" d="M501.846 571.577C517.653 566.367 525.607 561.708 540.276 555.051C540.292 560.624 540.548 570.264 539.993 575.463C541.87 583.649 539.933 590.009 534.768 596.494C535.759 597.045 536.647 597.072 537.811 597.282C525.658 600.48 502.81 600.941 490.814 597.464C492.29 597.511 493.528 597.756 494.74 597.021C495.712 591.173 481.888 588.944 484.562 575.386L484.472 563.984C487.207 565.097 489.28 566.751 491.278 567.503L491.735 567.461C494.346 570.119 498.199 570.655 501.846 571.577Z"/><path fill="#5B6275" d="M484.562 575.386C485.42 579.586 486.076 582.135 490.145 584.241C495.017 587.331 500.815 588.834 506.547 589.153C511.753 590.894 525.289 588.616 530.341 585.65C535.412 582.673 538.084 581.181 539.993 575.463C541.87 583.649 539.933 590.009 534.768 596.494C535.759 597.045 536.647 597.072 537.811 597.282C525.658 600.48 502.81 600.941 490.814 597.464C492.29 597.511 493.528 597.756 494.74 597.021C495.712 591.173 481.888 588.944 484.562 575.386Z"/><path fill="#2A2D3F" d="M490.145 584.241C492.51 583.535 503.377 586.765 505.687 587.984C506.014 588.158 506.337 588.34 506.655 588.53L506.547 589.153C500.815 588.834 495.017 587.331 490.145 584.241Z"/><path fill="#AEB6C5" d="M565.832 492.521C567.105 491.738 568.082 491.139 569.294 490.237C569.909 494.567 569.129 508.873 568.911 513.664C569.191 518.031 570.579 531.66 569.322 534.884L568.392 535.383L567.662 534.338L565.746 535.303L563.623 533.187C557.206 535.603 549.111 539.49 542.751 542.334L507.497 558.086C507.332 544.999 507.451 531.675 507.447 518.57C515.339 514.907 523.422 511.693 531.413 508.214C542.174 503.53 552.843 498.516 563.535 493.667C563.911 493.741 564.287 493.815 564.662 493.89L565.832 492.521Z"/><path fill="#0D2F7D" d="M565.832 492.521C567.105 491.738 568.082 491.139 569.294 490.237C569.909 494.567 569.129 508.873 568.911 513.664C569.191 518.031 570.579 531.66 569.322 534.884L568.392 535.383L567.662 534.338L565.746 535.303L563.623 533.187C565.482 526.87 563.795 501.863 564.662 493.89L565.832 492.521Z"/><path fill="#00051A" d="M565.832 492.521C567.67 497.546 566.208 524.071 567.436 531.229L567.662 534.338L565.746 535.303L563.623 533.187C565.482 526.87 563.795 501.863 564.662 493.89L565.832 492.521Z"/><path fill="#122F71" d="M567.436 531.229C567.999 526.465 567.232 514.632 567.804 511.621L568.154 518.631C568.222 516.653 567.915 515.014 568.911 513.664C569.191 518.031 570.579 531.66 569.322 534.884L568.392 535.383L567.662 534.338L567.436 531.229Z"/><path fill="#5E7DC6" d="M565.746 535.303L567.662 534.338L568.392 535.383C566.416 536.654 508.709 562.274 507.751 562.455C508.628 560.385 520.997 555.483 523.696 554.247L555.159 539.981C558.46 538.523 562.868 537.197 565.746 535.303Z"/><path fill="#AEB6C5" d="M720.422 442.152C724.142 439.415 725.97 438.337 730.552 438.497C734.746 441.013 737.314 440.053 742.141 443.976C752.955 454.116 758.238 465.885 757.086 480.8C756.769 485.02 755.296 488.584 751.71 491.001C749.662 491.768 745.035 497.63 741.496 500.251L677.633 546.854C672.045 550.872 657.476 562.146 652.378 565.224C711.79 569.675 771.17 574.547 830.513 579.842C840.849 580.722 851.383 581.177 861.633 582.116L867.028 582.208C867.059 588.099 866.977 594.505 867.187 600.347L716.71 614.438C701.162 615.72 685.622 617.107 670.093 618.599C666.391 618.96 652.715 620.164 649.64 621.048C647.219 618.482 636.617 612.346 632.681 609.297C629.355 607.129 626.05 604.93 622.767 602.699C615.088 610.307 595.436 626.545 584.926 628.351C588.612 624.947 592.141 623.819 596.098 620.657C597.378 619.635 601.597 615.657 602.672 615.35C604.831 614.732 605.026 614.487 606.673 612.773L606.649 611.848L605.808 611.827C601.876 614.677 591.333 621.266 586.975 621.957C589.847 619.999 593.663 618.944 595.562 616.74C590.67 617.799 583.334 622.929 578.441 624.376C575.343 625.291 567.464 628.458 564.879 628.84C565.273 627.59 565.109 626.939 566.367 626.424C578.71 621.367 594.269 615.752 604.473 606.764L604.422 605.869C581.647 620.597 573.444 623.034 547.041 628.966C547.107 628.864 547.173 628.762 547.239 628.66C550.802 612.984 568.923 610.436 579.154 600.658C585.765 594.34 588.759 587.226 588.999 578.167C589.27 577.384 589.541 575.94 589.733 575.079C590.275 572.66 590.055 569.362 590.088 566.826C590.195 558.482 590.07 551.379 585.56 543.994C584.463 542.196 581.236 537.763 579.08 537.27C578.461 533.664 578.822 520.596 578.872 516.465L579.057 508.736C611.193 494.43 643.138 479.698 674.882 464.542C685.5 459.526 712.128 447.708 720.422 442.152Z"/><path fill="#8E97AB" d="M720.422 442.152C724.142 439.415 725.97 438.337 730.552 438.497C734.746 441.013 737.314 440.053 742.141 443.976C752.955 454.116 758.238 465.885 757.086 480.8C756.769 485.02 755.296 488.584 751.71 491.001C749.662 491.768 745.035 497.63 741.496 500.251L677.633 546.854C672.045 550.872 657.476 562.146 652.378 565.224C649.984 564.387 635.318 563.711 632.078 563.515C631.529 555.934 628.252 550.284 624.179 544.15C638.071 535.436 654.019 523.039 667.345 513.35L743.406 458.083C736.41 450.124 732.69 448.45 723.542 443.139C727.246 442.872 729.187 443.417 732.574 443.303C727.711 441.833 725.405 442.904 720.422 442.152Z"/><defs><linearGradient id="gradient_10" gradientUnits="userSpaceOnUse" x1="737.66614" y1="486.75952" x2="741.4483" y2="440.00705"><stop offset="0" stop-color="#58556C"/><stop offset="1" stop-color="#7E818C"/></linearGradient></defs><path fill="url(#gradient_10)" d="M720.422 442.152C724.142 439.415 725.97 438.337 730.552 438.497C734.746 441.013 737.314 440.053 742.141 443.976C752.955 454.116 758.238 465.885 757.086 480.8C756.769 485.02 755.296 488.584 751.71 491.001C751.983 490.176 752.221 489.34 752.425 488.496C755.063 477.5 752.805 465.243 746.886 455.654C743.978 450.945 738.154 444.606 732.574 443.303C727.711 441.833 725.405 442.904 720.422 442.152Z"/><path fill="#768093" d="M861.633 582.116L867.028 582.208C867.059 588.099 866.977 594.505 867.187 600.347L716.71 614.438C701.162 615.72 685.622 617.107 670.093 618.599C666.391 618.96 652.715 620.164 649.64 621.048C647.219 618.482 636.617 612.346 632.681 609.297L633.303 609.165C630.901 606.756 630.761 602.116 631.648 598.977C632.981 597.531 632.587 597.992 635.098 597.67C638.272 597.171 647.279 596.948 651.194 596.685L690.766 594.191L816.544 586.241C826.358 585.525 854.208 584.395 861.633 582.116Z"/><defs><linearGradient id="gradient_11" gradientUnits="userSpaceOnUse" x1="530.24359" y1="599.71307" x2="617.9212" y2="545.26288"><stop offset="0" stop-color="#A1ABBE"/><stop offset="1" stop-color="#CED4DF"/></linearGradient></defs><path fill="url(#gradient_11)" d="M578.872 516.465C597.342 525.575 616.996 535.444 624.175 556.135C630.117 573.262 622.27 590.106 609.269 601.322C607.985 602.43 605.394 604.629 604.422 605.869C581.647 620.597 573.444 623.034 547.041 628.966C547.107 628.864 547.173 628.762 547.239 628.66C550.802 612.984 568.923 610.436 579.154 600.658C585.765 594.34 588.759 587.226 588.999 578.167C589.27 577.384 589.541 575.94 589.733 575.079C590.275 572.66 590.055 569.362 590.088 566.826C590.195 558.482 590.07 551.379 585.56 543.994C584.463 542.196 581.236 537.763 579.08 537.27C578.461 533.664 578.822 520.596 578.872 516.465Z"/><defs><linearGradient id="gradient_12" gradientUnits="userSpaceOnUse" x1="605.43073" y1="626.05988" x2="632.56525" y2="582.47449"><stop offset="0" stop-color="#6B7488"/><stop offset="1" stop-color="#838D9F"/></linearGradient></defs><path fill="url(#gradient_12)" d="M595.562 616.74C596.195 615.991 603.875 611.19 605.416 610.113C614.303 603.903 625.07 593.879 629.337 583.602C630.26 581.38 630.742 580.2 631.804 578.025C631.649 580.057 631.203 582.642 632.218 584.204C632.558 583.646 633.088 578.947 633.558 577.272C633.883 580.97 634.027 595.971 635.098 597.67C632.587 597.992 632.981 597.531 631.648 598.977C630.761 602.116 630.901 606.756 633.303 609.165L632.681 609.297C629.355 607.129 626.05 604.93 622.767 602.699C615.088 610.307 595.436 626.545 584.926 628.351C588.612 624.947 592.141 623.819 596.098 620.657C597.378 619.635 601.597 615.657 602.672 615.35C604.831 614.732 605.026 614.487 606.673 612.773L606.649 611.848L605.808 611.827C601.876 614.677 591.333 621.266 586.975 621.957C589.847 619.999 593.663 618.944 595.562 616.74Z"/><path fill="#5B6275" d="M622.767 602.699C626.05 604.93 629.355 607.129 632.681 609.297C636.617 612.346 647.219 618.482 649.64 621.048C669.276 633.98 689.664 648.987 709.191 662.502L738.037 682.448C742.087 685.235 748.075 688.952 751.717 691.746C747.961 692.062 743.332 692.547 740.088 694.571C734.599 697.994 733.472 704.269 726.595 700.439C724.747 700.871 724.939 701.186 723.459 703.051C724.005 705.186 723.996 705.739 725.541 707.294C727.657 707.958 727.62 707.17 729.806 706.654L729.984 706.855C729.723 709.247 729.242 708.116 728.564 710.018C725.743 717.937 724.06 719.737 724.492 728.216C723.716 734.196 726.304 736.099 728.295 741.525C728.577 742.294 728.484 742.057 729.158 742.668L729.027 743.22C721.665 740.576 715.685 737.721 708.717 735.038C705.433 736.079 701.978 738.01 698.916 739.648C686.891 746.077 675.069 752.95 663.08 759.44C634.905 774.466 606.892 789.793 579.045 805.419C565.223 813.153 551.351 820.798 537.43 828.352C529.609 832.641 521.342 837.482 513.407 841.469C513.566 837.983 512.788 832.921 514.658 830.298C517.036 828.448 531.443 820.881 534.893 818.998L577.542 795.49C611.233 776.921 644.64 757.76 678.784 740.024C684.592 737.007 691.244 732.736 697.236 730.415C688.362 726.716 679.174 722.347 670.25 718.492L617.427 696.17L588.225 684.119C583.865 682.304 575.646 678.997 571.742 676.764C571.808 675.522 571.653 674.936 571.457 673.711C571.436 667.474 571.631 639.195 570.623 634.86C570.717 634.64 571.243 633.987 571.411 633.764C575.977 632.116 580.485 630.311 584.926 628.351C595.436 626.545 615.088 610.307 622.767 602.699Z"/><path fill="#AEB6C5" d="M622.767 602.699C626.05 604.93 629.355 607.129 632.681 609.297C636.617 612.346 647.219 618.482 649.64 621.048C669.276 633.98 689.664 648.987 709.191 662.502L738.037 682.448C742.087 685.235 748.075 688.952 751.717 691.746C747.961 692.062 743.332 692.547 740.088 694.571C734.599 697.994 733.472 704.269 726.595 700.439C724.747 700.871 724.939 701.186 723.459 703.051C695.658 690.906 667.776 677.52 639.997 665.091L597.984 646.212C589.417 642.341 579.591 638.125 571.411 633.764C575.977 632.116 580.485 630.311 584.926 628.351C595.436 626.545 615.088 610.307 622.767 602.699Z"/><defs><linearGradient id="gradient_13" gradientUnits="userSpaceOnUse" x1="426.80917" y1="717.24335" x2="302.91666" y2="646.72455"><stop offset="0" stop-color="#6E768B"/><stop offset="1" stop-color="#929EB1"/></linearGradient></defs><path fill="url(#gradient_13)" d="M403.001 602.151C415.152 615.506 428.61 624.325 445.503 630.627C447.232 631.272 453.952 633.353 454.192 634.73L453.127 635.463C450.721 642.73 449.597 658.045 448.824 666.229C448.56 669.018 450.879 675.228 449.985 678.192C412.627 696.705 369.406 711.385 331.373 729.772C327.396 731.088 323.561 732.809 319.709 734.457C314.99 736.478 304.339 741.553 300.056 742.763C300.503 740.185 304.816 735.828 304.978 728.766C305.252 716.799 301.48 709.489 293.887 700.896C292.427 699.282 290.211 697.367 288.565 695.849C284.805 693.79 282.737 692.387 278.25 692.02L274.654 691.739C288.774 682.4 303.08 671.859 317.012 662.113L375.946 621.049C376.39 620.328 399.436 605.255 403.001 602.151Z"/><path fill="#AEB6C5" d="M403.001 602.151C415.152 615.506 428.61 624.325 445.503 630.627C447.232 631.272 453.952 633.353 454.192 634.73L453.127 635.463C438.576 640.505 420.056 649.411 405.826 655.98L344.559 684.007C339.527 686.291 305.991 700.613 303.796 702.544L303.518 703.608C301.762 702.409 303.164 703.713 302.631 702.616C299.768 696.738 291.191 692.076 285.872 688.391C284.726 687.597 279.304 689.516 278.18 690.623C280.85 691.953 287.521 693.078 288.974 695.485L288.565 695.849C284.805 693.79 282.737 692.387 278.25 692.02L274.654 691.739C288.774 682.4 303.08 671.859 317.012 662.113L375.946 621.049C376.39 620.328 399.436 605.255 403.001 602.151Z"/><defs><linearGradient id="gradient_14" gradientUnits="userSpaceOnUse" x1="453.62714" y1="678.23389" x2="518.08667" y2="561.97809"><stop offset="0" stop-color="#444B5F"/><stop offset="1" stop-color="#636D80"/></linearGradient></defs><path fill="url(#gradient_14)" d="M392.899 575.692C393.808 586.713 404.102 598.916 412.175 605.724C432.978 623.268 467.528 633.42 494.63 635.571C496.131 633.875 496.528 636.442 498.798 635.055L498.551 634.116C496.472 632.421 494.356 633.856 491.322 632C494.559 632.32 503.624 633.689 505.923 632.16C521.275 631.864 531.813 631.383 547.041 628.966C573.444 623.034 581.647 620.597 604.422 605.869L604.473 606.764C594.269 615.752 578.71 621.367 566.367 626.424C565.109 626.939 565.273 627.59 564.879 628.84C567.464 628.458 575.343 625.291 578.441 624.376C583.334 622.929 590.67 617.799 595.562 616.74C593.663 618.944 589.847 619.999 586.975 621.957C591.333 621.266 601.876 614.677 605.808 611.827L606.649 611.848L606.673 612.773C605.026 614.487 604.831 614.732 602.672 615.35C601.597 615.657 597.378 619.635 596.098 620.657C592.141 623.819 588.612 624.947 584.926 628.351C580.485 630.311 575.977 632.116 571.411 633.764C571.243 633.987 570.717 634.64 570.623 634.86C571.631 639.195 571.436 667.474 571.457 673.711C571.653 674.936 571.808 675.522 571.742 676.764C567.194 677.516 562.673 678.788 558.114 679.681C550.657 681.092 543.139 682.157 535.584 682.873L535.112 683.081C534.099 692.865 531.402 705.699 529.546 715.513C526.061 733.55 522.465 751.565 518.757 769.557C518.333 772.465 517.935 775.643 517.381 778.501C513.999 778.281 511.931 778.2 508.545 778.334L507.113 770.745C503.701 754.397 500.435 738.018 497.314 721.612C495.105 710.382 492.515 698.794 490.503 687.588C490.134 686.096 489.914 684.244 489.682 682.691C477.195 681.74 466.909 680.398 454.936 676.538C454.09 676.266 450.997 677.734 449.985 678.192C450.879 675.228 448.56 669.018 448.824 666.229C449.597 658.045 450.721 642.73 453.127 635.463L454.192 634.73C453.952 633.353 447.232 631.272 445.503 630.627C428.61 624.325 415.152 615.506 403.001 602.151L402.841 601.614C401.218 601.622 398.697 605.21 395.737 606.464C393.471 604.726 394.353 584.701 392.785 580.705C392.684 580.447 392.569 580.194 392.461 579.938C392.423 578.419 392.169 576.937 392.899 575.692Z"/><defs><linearGradient id="gradient_15" gradientUnits="userSpaceOnUse" x1="515.13037" y1="647.49548" x2="494.05295" y2="754.97058"><stop offset="0" stop-color="#A5AEBD"/><stop offset="1" stop-color="#C7CDDB"/></linearGradient></defs><path fill="url(#gradient_15)" d="M490.93 651.702C493.579 649.416 505.474 649.911 508.95 650.689C515.652 652.189 527.675 650.274 533.376 651.515C533.356 652.915 533.355 654.148 533.728 655.504C532.278 664.435 531.236 673.766 529.699 682.577C531.758 683.189 532.932 683.064 535.112 683.081C534.099 692.865 531.402 705.699 529.546 715.513C526.061 733.55 522.465 751.565 518.757 769.557C518.333 772.465 517.935 775.643 517.381 778.501C513.999 778.281 511.931 778.2 508.545 778.334L507.113 770.745C503.701 754.397 500.435 738.018 497.314 721.612C495.105 710.382 492.515 698.794 490.503 687.588C490.134 686.096 489.914 684.244 489.682 682.691C490.415 677.423 489.336 661.286 491.494 657.298L490.93 651.702Z"/><path fill="#8E97AB" d="M491.494 657.298C492.549 662.561 494.448 674.091 494.979 679.446C498.549 690.42 507.643 756.013 509.446 758.756C511.149 758.912 512.857 759.005 514.567 759.033L517.374 758.988C517.338 762.234 516.695 767.291 518.757 769.557C518.333 772.465 517.935 775.643 517.381 778.501C513.999 778.281 511.931 778.2 508.545 778.334L507.113 770.745C503.701 754.397 500.435 738.018 497.314 721.612C495.105 710.382 492.515 698.794 490.503 687.588C490.134 686.096 489.914 684.244 489.682 682.691C490.415 677.423 489.336 661.286 491.494 657.298Z"/><path fill="#768093" d="M517.374 758.988C517.338 762.234 516.695 767.291 518.757 769.557C518.333 772.465 517.935 775.643 517.381 778.501C513.999 778.281 511.931 778.2 508.545 778.334L507.113 770.745C508.865 769.143 508.807 762.725 509.143 759.708L514.567 759.033L517.374 758.988Z"/><path fill="#5B6275" d="M491.494 657.298C492.549 662.561 494.448 674.091 494.979 679.446L494.581 680.128C494.241 678.402 493.498 673.168 492.717 672.254C490.931 673.988 489.917 680.438 491.306 682.468L493.041 682.65L492.762 683.215L490.775 683.86L490.503 687.588C490.134 686.096 489.914 684.244 489.682 682.691C490.415 677.423 489.336 661.286 491.494 657.298Z"/><path fill="#AEB6C5" d="M517.374 758.988C517.811 752.093 520.912 737.652 522.083 730.031L526.881 698.857C527.52 694.716 528.57 686.246 529.699 682.577C531.758 683.189 532.932 683.064 535.112 683.081C534.099 692.865 531.402 705.699 529.546 715.513C526.061 733.55 522.465 751.565 518.757 769.557C516.695 767.291 517.338 762.234 517.374 758.988Z"/><path fill="#768093" d="M604.422 605.869L604.473 606.764C594.269 615.752 578.71 621.367 566.367 626.424C565.109 626.939 565.273 627.59 564.879 628.84C567.464 628.458 575.343 625.291 578.441 624.376C583.334 622.929 590.67 617.799 595.562 616.74C593.663 618.944 589.847 619.999 586.975 621.957C581.776 623.876 577.172 625.995 571.836 627.76C551.227 634.428 529.612 637.445 507.965 636.675C505.799 636.597 496.066 636.391 494.63 635.571C496.131 633.875 496.528 636.442 498.798 635.055L498.551 634.116C496.472 632.421 494.356 633.856 491.322 632C494.559 632.32 503.624 633.689 505.923 632.16C521.275 631.864 531.813 631.383 547.041 628.966C573.444 623.034 581.647 620.597 604.422 605.869Z"/><path fill="#8E97AB" d="M490.681 646.978C508.181 648.316 517.253 647.775 534.799 646.856L534.644 653.231L533.728 655.504C533.355 654.148 533.356 652.915 533.376 651.515C527.675 650.274 515.652 652.189 508.95 650.689C505.474 649.911 493.579 649.416 490.93 651.702L490.681 646.978Z"/><path fill="#768093" d="M533.728 655.504L534.644 653.231C535.245 658.319 536.236 678.486 535.584 682.873L535.112 683.081C532.932 683.064 531.758 683.189 529.699 682.577C531.236 673.766 532.278 664.435 533.728 655.504Z"/><path fill="#2A2D3F" d="M570.623 634.86C571.631 639.195 571.436 667.474 571.457 673.711C570.582 669.987 570.948 661.639 570.731 657.049L570.51 657.205C570.026 660.959 569.975 663.083 569.97 666.895L569.649 667.168C568.584 660.148 568.747 648.192 568.755 640.996C568.106 642.382 567.921 642.946 566.899 644.131L570.623 634.86Z"/><path fill="#5B6275" d="M393.164 563.617C393.233 567.514 393.444 571.877 392.899 575.692C392.169 576.937 392.423 578.419 392.461 579.938C392.569 580.194 392.684 580.447 392.785 580.705C394.353 584.701 393.471 604.726 395.737 606.464C398.697 605.21 401.218 601.622 402.841 601.614L403.001 602.151C399.436 605.255 376.39 620.328 375.946 621.049C370.099 618.833 332.824 616.385 325.074 615.643L160.39 600.388C159.995 595.431 160.176 587.492 160.162 582.339C161.785 582.147 163.589 582.097 165.239 582.012C170.334 581.152 181.425 580.661 186.943 580.247L225.886 577.074L373.497 564.926C379.34 564.345 387.405 563.65 393.164 563.617Z"/><defs><linearGradient id="gradient_16" gradientUnits="userSpaceOnUse" x1="393.12537" y1="588.19659" x2="173.19997" y2="558.38959"><stop offset="0" stop-color="#9FA9B9"/><stop offset="1" stop-color="#CBD1DF"/></linearGradient></defs><path fill="url(#gradient_16)" d="M393.164 563.617C393.233 567.514 393.444 571.877 392.899 575.692C392.169 576.937 392.423 578.419 392.461 579.938C392.03 584.39 392.321 592.543 392.398 597.254C377.022 597.352 357.396 595.491 341.818 594.474L255.095 588.845L195.261 584.815C189.175 584.4 170.035 583.425 165.239 582.012C170.334 581.152 181.425 580.661 186.943 580.247L225.886 577.074L373.497 564.926C379.34 564.345 387.405 563.65 393.164 563.617Z"/><defs><linearGradient id="gradient_17" gradientUnits="userSpaceOnUse" x1="265.61298" y1="755.7406" x2="243.08003" y2="713.28888"><stop offset="0" stop-color="#757F92"/><stop offset="1" stop-color="#AAB3C2"/></linearGradient></defs><path fill="url(#gradient_17)" d="M272.378 692.595L274.654 691.739L278.25 692.02C282.737 692.387 284.805 693.79 288.565 695.849C290.211 697.367 292.427 699.282 293.887 700.896C301.48 709.489 305.252 716.799 304.978 728.766C304.816 735.828 300.503 740.185 300.056 742.763C296.928 743.837 294.691 743.617 291.386 743.347C284.939 744.527 234.456 772.92 224.116 778.458C221.995 780.881 216.649 782.188 213.433 781.406C199.072 777.913 181.343 746.639 198.063 736.737C218.223 726.374 238.578 714.482 258.528 704.368L258.704 704.797C261.378 704.279 266.322 702.323 267.291 699.561L267.719 696.879C269.327 694.567 270.014 694.224 272.378 692.595Z"/><path fill="#5B6275" d="M224.116 778.458C221.995 780.881 216.649 782.188 213.433 781.406C199.072 777.913 181.343 746.639 198.063 736.737C213.767 738.923 223.042 753.146 224.739 768.315C225.138 771.88 224.549 774.919 224.116 778.458Z"/><defs><linearGradient id="gradient_18" gradientUnits="userSpaceOnUse" x1="302.72531" y1="717.33551" x2="286.61359" y2="723.25427"><stop offset="0" stop-color="#20283A"/><stop offset="1" stop-color="#454D63"/></linearGradient></defs><path fill="url(#gradient_18)" d="M289.484 699.345C290.817 699.82 292.571 700.501 293.887 700.896C301.48 709.489 305.252 716.799 304.978 728.766C304.816 735.828 300.503 740.185 300.056 742.763C296.928 743.837 294.691 743.617 291.386 743.347C305.528 738.03 301.71 716.273 293.987 707.074C292.034 704.748 290.166 702.829 287.996 700.703L289.484 699.345Z"/><path fill="#5B6275" d="M272.378 692.595L274.654 691.739L278.25 692.02C282.737 692.387 284.805 693.79 288.565 695.849C290.211 697.367 292.427 699.282 293.887 700.896C292.571 700.501 290.817 699.82 289.484 699.345L287.996 700.703C284.619 698.033 282.579 697.629 278.515 696.453C270.627 696.46 271.875 698.438 267.291 699.561L267.719 696.879C269.327 694.567 270.014 694.224 272.378 692.595Z"/><path fill="#454A5C" d="M272.378 692.595C274.372 694.19 276.482 694.167 279.094 694.528L276.338 695.392C277.332 696.374 276.969 696.021 278.515 696.453C270.627 696.46 271.875 698.438 267.291 699.561L267.719 696.879C269.327 694.567 270.014 694.224 272.378 692.595Z"/><path fill="#2A2D3F" d="M279.094 694.528C284.01 695.528 285.342 696.441 289.484 699.345L287.996 700.703C284.619 698.033 282.579 697.629 278.515 696.453C276.969 696.021 277.332 696.374 276.338 695.392L279.094 694.528Z"/><defs><linearGradient id="gradient_19" gradientUnits="userSpaceOnUse" x1="745.43463" y1="762.45374" x2="816.84717" y2="717.58636"><stop offset="0" stop-color="#52576D"/><stop offset="1" stop-color="#818D9E"/></linearGradient></defs><path fill="url(#gradient_19)" d="M751.717 691.746C755.015 693.831 757.512 695.533 760.38 698.241L758.508 699.112C760.592 700.366 765.484 703.152 767.189 704.501C768.947 705.989 781.606 712.201 784.571 713.83C798.568 721.522 813.198 728.926 827.074 736.809C830.329 738.32 832.792 739.67 834.076 743.558C838.487 756.911 822.112 786.331 806.211 781.129C801.737 779.666 790.328 772.975 785.364 770.191L748.77 749.708C746.131 748.237 738.256 743.497 735.665 743.193C732.744 744.223 731.84 744.394 729.027 743.22L729.158 742.668C728.484 742.057 728.577 742.294 728.295 741.525C726.304 736.099 723.716 734.196 724.492 728.216C724.06 719.737 725.743 717.937 728.564 710.018C729.242 708.116 729.723 709.247 729.984 706.855L729.806 706.654C727.62 707.17 727.657 707.958 725.541 707.294C723.996 705.739 724.005 705.186 723.459 703.051C724.939 701.186 724.747 700.871 726.595 700.439C733.472 704.269 734.599 697.994 740.088 694.571C743.332 692.547 747.961 692.062 751.717 691.746Z"/><defs><linearGradient id="gradient_20" gradientUnits="userSpaceOnUse" x1="775.26526" y1="731.22699" x2="784.49768" y2="713.67432"><stop offset="0" stop-color="#848DA0"/><stop offset="1" stop-color="#B2B9C9"/></linearGradient></defs><path fill="url(#gradient_20)" d="M737.08 703.083C741.574 697.264 745.494 696.177 752.473 696.631C754.914 697.484 756.185 697.893 758.508 699.112C760.592 700.366 765.484 703.152 767.189 704.501C768.947 705.989 781.606 712.201 784.571 713.83C798.568 721.522 813.198 728.926 827.074 736.809C818.147 737.999 816.086 742.193 808.606 746.395C807.265 746.949 806.73 747.468 805.312 746.782C793.165 740.901 780.855 733.848 768.923 727.682C763.685 724.975 737.456 712.045 735.805 708.237C735.958 706.281 736.148 706.1 737.083 704.445L737.08 703.083Z"/><path fill="#8E97AB" d="M737.08 703.083C741.574 697.264 745.494 696.177 752.473 696.631C746.916 700.171 744.453 700.451 739.477 705.66C738.054 705.369 738.132 705.438 737.083 704.445L737.08 703.083Z"/><defs><linearGradient id="gradient_21" gradientUnits="userSpaceOnUse" x1="744.96167" y1="719.69305" x2="734.495" y2="697.8064"><stop offset="0" stop-color="#343A48"/><stop offset="1" stop-color="#6A7186"/></linearGradient></defs><path fill="url(#gradient_21)" d="M751.717 691.746C755.015 693.831 757.512 695.533 760.38 698.241L758.508 699.112C756.185 697.893 754.914 697.484 752.473 696.631C745.494 696.177 741.574 697.264 737.08 703.083C728.662 710.675 731.908 713.679 728.423 721.251C726.831 722.536 726.509 725.5 726.28 727.485C726.222 727.995 726.17 728.505 726.125 729.016L725.749 729.15L725.251 725.501L725.043 726.386C724.75 727.598 724.892 727.116 724.492 728.216C724.06 719.737 725.743 717.937 728.564 710.018C729.242 708.116 729.723 709.247 729.984 706.855L729.806 706.654C727.62 707.17 727.657 707.958 725.541 707.294C723.996 705.739 724.005 705.186 723.459 703.051C724.939 701.186 724.747 700.871 726.595 700.439C733.472 704.269 734.599 697.994 740.088 694.571C743.332 692.547 747.961 692.062 751.717 691.746Z"/><path fill="#454A5C" d="M724.492 728.216C724.892 727.116 724.75 727.598 725.043 726.386L725.251 725.501L725.749 729.15L726.125 729.016C726.17 728.505 726.222 727.995 726.28 727.485C726.509 725.5 726.831 722.536 728.423 721.251C728.505 726.908 724.688 733.662 729.386 738.511C731.093 740.272 733.592 741.841 735.665 743.193C732.744 744.223 731.84 744.394 729.027 743.22L729.158 742.668C728.484 742.057 728.577 742.294 728.295 741.525C726.304 736.099 723.716 734.196 724.492 728.216Z"/><path fill="#1E49A0" d="M376.021 362.558C394.036 355.475 417.597 361.77 425.348 380.528C435.522 396.464 427.352 421.042 411.729 430.955C403.367 436.197 393.278 437.938 383.643 435.8C372.455 433.283 361.982 425.608 357.149 415.093C354.851 409.465 354.24 406.019 353.885 400.034C352.598 384.151 361.646 369.196 376.021 362.558Z"/><defs><linearGradient id="gradient_22" gradientUnits="userSpaceOnUse" x1="367.4458" y1="383.07541" x2="360.29181" y2="374.99951"><stop offset="0" stop-color="#677FC0"/><stop offset="1" stop-color="#8F9ED5"/></linearGradient></defs><path fill="url(#gradient_22)" d="M353.885 400.034C352.598 384.151 361.646 369.196 376.021 362.558C375.538 365.944 375.307 370.35 376.742 373.523L377.843 374.476C379.795 374.107 379.749 373.629 381.515 372.071C381.999 373.89 382.763 375.963 382.481 377.762C379.314 382.029 371.613 385.352 366.788 388.986C367.002 386.915 367.367 387.47 366.529 386.34C356.946 386.68 358.474 396.109 353.885 400.034Z"/><path fill="#5E7DC6" d="M376.021 362.558C394.036 355.475 417.597 361.77 425.348 380.528C425.208 381.201 425.382 380.942 424.859 381.328C424.265 379.828 421.253 375.132 420.25 374.203C419.731 376.283 421.523 376.461 420.887 378.035C413.843 376.599 382.503 353.707 381.515 372.071C379.749 373.629 379.795 374.107 377.843 374.476L376.742 373.523C375.307 370.35 375.538 365.944 376.021 362.558Z"/><path fill="#5E7DC6" d="M353.885 400.034C358.474 396.109 356.946 386.68 366.529 386.34C367.367 387.47 367.002 386.915 366.788 388.986C359.416 395.795 359.314 400.009 358.394 409.528C358.154 412.013 358.277 412.909 357.149 415.093C354.851 409.465 354.24 406.019 353.885 400.034Z"/><path fill="#122F71" d="M374.041 396.187C377.98 396.376 382.119 397.021 385.371 399.351C393.865 405.437 396.559 418.422 390.428 427.014L385.928 427.727C374.094 424.658 368.536 422.449 364.241 410.186C364.399 409.352 364.579 408.522 364.78 407.697C365.915 403.166 370.103 398.589 374.041 396.187Z"/><path fill="#8E97AB" d="M400.947 379.98C409.366 379.629 422.875 384.627 414.595 394.462C403.429 399.427 398.767 390.03 400.947 379.98Z"/><defs><linearGradient id="gradient_23" gradientUnits="userSpaceOnUse" x1="226.96664" y1="458.29333" x2="248.74648" y2="421.77353"><stop offset="0" stop-color="#5E657A"/><stop offset="1" stop-color="#ABB4C4"/></linearGradient></defs><path fill="url(#gradient_23)" d="M206.875 405.318C219.282 394.744 228.685 403.162 240.687 409.623C252.887 416.317 265.141 422.91 277.45 429.401C282.292 431.958 290.343 436.573 295.114 438.322C298.821 438.413 300.059 438.92 303.164 440.977L305.662 442.658C301.28 442.317 294.442 447.802 291.17 450.576C288.233 453.099 285.438 455.783 282.799 458.616C281.129 458.07 279.45 457.555 277.762 457.071C274.109 461.221 271.828 474.321 271.543 479.822C271.463 481.373 273.871 486.631 273.897 490.989C271.517 489.06 270.566 487.241 269.247 484.558L269.015 482.435C268.399 480.757 267.082 480.235 265.51 479.229C263.414 478.272 261.243 476.904 259.194 475.786C240.241 465.445 221.447 454.547 202.271 444.635C186.655 436.562 197.553 413.849 206.875 405.318Z"/><path fill="#AEB6C5" d="M206.875 405.318C219.282 394.744 228.685 403.162 240.687 409.623C252.887 416.317 265.141 422.91 277.45 429.401C282.292 431.958 290.343 436.573 295.114 438.322C291.099 439.982 288.273 441.274 284.739 443.764C283.567 442.569 275.362 439.73 273.006 438.247C254.097 426.347 234.496 416.434 214.67 406.225C212.077 404.889 209.639 405.871 206.875 405.318Z"/><path fill="#5B6275" d="M295.114 438.322C298.821 438.413 300.059 438.92 303.164 440.977L305.662 442.658C301.28 442.317 294.442 447.802 291.17 450.576C288.233 453.099 285.438 455.783 282.799 458.616C281.129 458.07 279.45 457.555 277.762 457.071C274.109 461.221 271.828 474.321 271.543 479.822C271.463 481.373 273.871 486.631 273.897 490.989C271.517 489.06 270.566 487.241 269.247 484.558L269.015 482.435C268.399 480.757 267.082 480.235 265.51 479.229L266.05 478.868C267.179 479.271 267.173 479.338 268.352 479.331C268.834 477.69 268.393 473.666 268.322 471.759C267.9 460.331 276.479 450.78 284.739 443.764C288.273 441.274 291.099 439.982 295.114 438.322Z"/><path fill="#AEB6C5" d="M303.164 440.977L305.662 442.658C301.28 442.317 294.442 447.802 291.17 450.576C288.233 453.099 285.438 455.783 282.799 458.616C281.129 458.07 279.45 457.555 277.762 457.071C278.388 456.092 279.04 455.129 279.717 454.184C286.722 444.494 291.899 442.798 303.164 440.977Z"/><defs><linearGradient id="gradient_24" gradientUnits="userSpaceOnUse" x1="797.76825" y1="457.9704" x2="775.51288" y2="417.40201"><stop offset="0" stop-color="#7F889D"/><stop offset="1" stop-color="#B4BECD"/></linearGradient></defs><path fill="url(#gradient_24)" d="M730.552 438.497C734.413 437.334 744.829 431.564 749.064 429.317C761.419 422.833 773.689 416.189 785.87 409.384C792.727 405.564 801.694 398.949 809.555 400.472C825.357 404.146 841.662 436.216 823.173 445.411C817.085 448.44 811.204 452.097 805.04 455.016C789.548 463.547 772.12 471.685 757.086 480.8C758.238 465.885 752.955 454.116 742.141 443.976C737.314 440.053 734.746 441.013 730.552 438.497Z"/><path fill="#AEB6C5" d="M730.552 438.497C734.413 437.334 744.829 431.564 749.064 429.317C761.419 422.833 773.689 416.189 785.87 409.384C792.727 405.564 801.694 398.949 809.555 400.472C802.722 402.494 798.39 406.468 792.423 410.131C777.081 419.549 761.484 426.741 748.186 439.283C746.414 440.955 743.912 442.223 742.141 443.976C737.314 440.053 734.746 441.013 730.552 438.497Z"/><path fill="#AEB6C5" d="M319.709 734.457C323.561 732.809 327.396 731.088 331.373 729.772C348.494 736.913 370.136 750.126 386.836 759.365L479.281 810.524C484.333 813.331 511.428 829.448 514.658 830.298C512.788 832.921 513.566 837.983 513.407 841.469C508.105 839.288 493.267 830.015 487.02 826.624C462.947 813.805 439.042 800.672 415.313 787.228L355.752 754.518C345.278 748.843 329.514 740.757 319.709 734.457Z"/><defs><linearGradient id="gradient_25" gradientUnits="userSpaceOnUse" x1="194.9005" y1="721.2063" x2="155.68312" y2="578.12622"><stop offset="0" stop-color="#C0C5D3"/><stop offset="1" stop-color="#ECF0F8"/></linearGradient></defs><path fill="url(#gradient_25)" d="M84.5448 596.118C119.688 614.092 152.785 632.623 186.977 652.231C198.301 658.725 210.209 664.559 221.649 670.85C232.797 677.019 243.915 683.244 255 689.526C257.348 690.87 265.83 696.192 267.719 696.879L267.291 699.561C266.322 702.323 261.378 704.279 258.704 704.797L258.528 704.368C200.838 671.732 142.853 639.618 84.5821 608.032L84.5448 596.118Z"/><path fill="#5B6275" d="M944.581 596.221C950.315 593.487 950.638 593.939 953.982 588.701C953.892 592.781 953.908 597.592 953.638 601.608C950.886 603.617 943.253 607.327 939.918 609.138L912.582 624.153L814.761 677.973L784.505 694.603C779.328 697.458 771.906 701.327 767.189 704.501C765.484 703.152 760.592 700.366 758.508 699.112L760.38 698.241C762.112 696.683 773.817 690.455 776.741 688.839L816.925 666.704L944.581 596.221Z"/><path fill="#AEB6C5" d="M944.581 596.221C950.315 593.487 950.638 593.939 953.982 588.701C953.892 592.781 953.908 597.592 953.638 601.608C950.733 600.026 947.496 597.94 944.581 596.221Z"/><path fill="#8E97AB" fill-opacity="0.98039216" d="M269.015 482.435L269.247 484.558C248.128 494.134 220.524 510.371 199.383 521.778L126.196 562.14C111.332 570.291 94.1825 579.044 79.6746 587.465L77.9959 586.622C80.0461 584.915 88.5054 580.782 91.3668 579.204C105.893 571.171 120.478 563.243 135.119 555.421L217.735 510.009C235.189 500.423 251.194 491.437 269.015 482.435Z"/><path fill="#768093" d="M77.9959 586.622L79.6746 587.465L74.5062 590.861C77.4133 592.424 80.7576 594.118 83.5808 595.75L84.5448 596.118L84.5821 608.032C81.6454 606.14 73.2266 602.939 72.3376 600.599C72.4075 596.684 72.2374 593.7 71.9646 589.779L77.9959 586.622Z"/><path fill="#AEB6C5" d="M77.9959 586.622L79.6746 587.465L74.5062 590.861C77.4133 592.424 80.7576 594.118 83.5808 595.75C81.1338 596.939 74.8473 600.123 72.3376 600.599C72.4075 596.684 72.2374 593.7 71.9646 589.779L77.9959 586.622Z"/></svg>