<?xml version="1.0" encoding="utf-8" ?><svg xmlns="http://www.w3.org/2000/svg" xmlns:xlink="http://www.w3.org/1999/xlink" width="1024" height="1024" viewBox="0 0 1024 1024"><path fill="#0D0B11" d="M514.276 133.971C554.683 113.102 601.175 96.4925 647.089 95.2498C650.167 95.1665 659.736 94.8489 662.388 95.8906C688.288 98.3437 711.756 106.719 729.264 127.115C732.158 130.486 740.336 142.987 740.615 147.072C742.638 149.818 743.897 156.036 744.385 159.493C746.713 175.996 744.359 194.188 738.747 209.858C737.442 215.184 734.805 220.563 732.623 225.598C724.078 245.314 712.985 260.984 700.617 278.477C717.806 300.895 734.361 322.738 743.553 349.925C745.252 354.952 747.405 362.748 747.601 368.059L748.062 371.356C749.431 379.537 748.176 393.445 745.385 401.182C726.717 452.928 657.35 451.074 613.128 440.376C605.458 438.52 598.378 436.658 591.006 434.666C589 440.374 587.019 448.522 586.883 454.585C592.851 463.614 592.433 468.714 587.349 478.258L589.874 482.086C592.296 487.124 591.597 491.983 589.817 497.124C589.655 497.59 589.487 498.054 589.313 498.516C613.306 505.188 637.839 514.741 656.924 531.105C659.94 533.691 665.412 538.979 667.406 542.409C674.205 551.387 678.998 560.963 680.11 572.338C681.397 582.65 681.177 607.257 676.164 616.335L675.767 616.557L674.876 618.34C673.139 623.619 668.787 628.579 665.341 633.023C678.853 638.433 688.381 643.782 700.908 650.738C705.424 654.318 710.621 657.518 715.265 661.066C727.748 670.551 738.23 682.413 746.106 695.969C757.143 717.395 756.374 733.82 755.792 757.123C755.626 763.789 755.99 770.848 755.23 777.452C754.676 782.053 753.668 786.587 752.221 790.989C749.256 800.195 743.278 811.701 736.856 819.002C722.996 835.136 715.466 840.205 698.548 851.849C691.942 855.664 685.955 859.1 679.147 862.512C676.708 863.63 667.631 867.584 665.775 868.721C604.754 892.797 563.327 897.455 498.288 897.528C462.17 897.166 419.637 889.56 385.497 877.907C344.699 863.729 300.119 841.384 279.635 801.276C271.381 785.114 271.512 769.365 271.857 751.869C272.049 742.156 271.33 732.658 272.601 722.967C273.306 717.688 274.577 712.501 276.392 707.495C290.035 669.433 326.895 648.677 361.098 632.413C348.53 619.153 345.116 608.402 345.981 590.349C346.402 582.414 345.042 572.361 346.922 564.71C356.048 527.562 403.153 507.5 436.261 498.862C432.5 489.928 432.688 485.576 437.53 477.471C428.118 461.28 440.105 460.971 438.184 450.912C434.806 450.978 427.402 453.293 423.504 453.961C415.47 455.337 407.635 456.585 399.502 457.346C368.111 460.281 333.434 455.863 308.386 435.209C294.374 423.654 284.924 407.121 283.464 388.89C279.848 343.751 312.509 297.872 340.338 265.234C301.631 222.46 262.522 135.127 338.009 104.924C384.518 86.3151 442.62 103.529 486.804 121.011C496.012 124.654 504.737 129.958 513.781 133.767L514.276 133.971ZM300.411 375.466C295.416 424.924 339.848 439.943 381.699 439.612C400.701 439.462 415.669 436.676 434.201 432.671C427.842 412.16 423.161 408.577 407.69 393.851C377.052 364.69 362.163 328.811 361.425 286.681C358.825 284.406 356.629 282.247 354.174 279.814C336.067 296.834 300.437 350.297 300.411 375.466ZM541.977 143.49C585.27 152.929 615.456 170.65 641.359 208.409C644.67 213.236 652.837 231.356 655.085 233.403C666.798 243.232 675.946 253.392 686.631 263.851C711.226 229.171 753.798 162.176 706.204 128.163C691.36 117.554 664.408 112.813 646.374 114.707C616.977 117.367 591.128 123.681 563.573 134.431C557.029 136.984 548.06 140.154 541.977 143.49ZM663.641 269.255C664.416 276.34 664.7 283.622 665.075 290.755C666.001 289.724 668.911 286.644 669.586 285.698C671.428 283.644 673.256 281.579 675.071 279.501C671.888 276.96 665.902 270.825 663.641 269.255ZM347.152 242.69L347.318 242.886C349.258 244.075 352.011 247.976 353.542 249.931C359.616 242.651 366.508 236.472 372.737 229.48C373.794 228.294 376.884 221.179 377.759 219.339C397.189 178.479 441.259 148.437 485.752 142.234C445.618 125.042 387.369 104.7 344.688 121.25C295.166 140.452 313.017 193.557 336.136 226.409C337.912 228.933 346.452 240.727 347.152 242.69ZM687.799 294.81C679.117 304.727 670.296 314.521 661.338 324.189C658.004 346.226 638.947 378.533 622.997 393.438C616.802 399.225 604.405 410.115 600.125 416.749C611.113 420.367 634.603 426.525 646.392 427.191C649.059 427.839 657.265 428.37 660.247 428.422C677.154 428.714 694.684 427.431 709.461 418.374C720.116 411.844 727.075 402.96 729.953 390.784C735.081 369.084 721.538 342.801 710.285 324.906C707.131 319.89 691.657 297.54 687.799 294.81Z"/><path fill="#B5ACE1" d="M641.548 628.115C633.987 632.727 626.066 636.723 617.864 640.064C569.199 660.376 514.473 664.404 462.627 656.096C455.757 654.995 437.658 651.292 431.74 648.858C431.441 648.208 431.239 647.799 430.898 647.149L428.548 647.969C426.033 647.65 421.434 645.617 418.864 644.661C387.249 633.311 340.743 606.835 347.468 566.995C352.882 534.917 392.794 513.608 421.052 504.361C426.302 502.643 432.633 500.115 438.02 499.695C432.591 509.589 431.882 513.191 437.885 523.032C435.278 527.512 432.71 533.118 434.706 538.51C438.227 548.023 448.847 562.663 456.063 569.522C459.263 572.563 468.54 577.768 472.222 579.75C475.785 587.674 480.608 589.94 486.683 595.448C495.282 603.244 505.952 605.347 517.265 604.828C522.601 608.67 558.762 613.931 567.279 615.286L611.406 622.334C620.413 623.686 629.681 624.788 638.631 626.41C640.407 626.733 640.621 626.92 641.548 628.115Z"/><path fill="#9488D2" d="M526.479 615.453C524.186 613.73 523.381 613.774 522.761 611.443C524.91 608.48 532.916 611.137 532.158 614.236C531.597 614.532 531.073 614.885 530.495 615.01C529.064 615.283 527.926 615.607 526.479 615.453Z"/><path fill="#A094D1" d="M526.479 615.453L527.701 614.793C526.674 612.995 526.904 613.928 526.923 611.904C528.44 612.437 528.627 612.729 529.955 613.657L530.495 615.01C529.064 615.283 527.926 615.607 526.479 615.453Z"/><path fill="#7D6EBF" d="M403.104 576.732C404.072 577.006 404.513 577.251 405.433 577.663C407.651 580.356 406.597 583 404.877 585.626C403.5 585.65 403.56 585.723 402.349 585.11C400.378 582.229 401.098 579.352 403.104 576.732Z"/><path fill="#7D6EBF" d="M397.736 573.699L399.056 574.075C399.688 575.111 398.931 576.098 398.435 577.35C397.372 580.034 397.071 581.695 397.084 584.535C396.351 584.33 396.069 584.16 395.377 583.841C392.856 580.081 394.595 576.359 397.736 573.699Z"/><path fill="#9488D2" d="M443.218 578.466C444.698 580.544 442.851 581.609 445.867 582.186L447.32 581.686L448.246 582.628C447.811 584.269 445.949 585.63 444.495 586.461C441.016 585.002 443.138 581.68 442.713 578.816L443.218 578.466Z"/><path fill="#9488D2" d="M465.569 584.251C467.473 584.618 468.34 584.616 469.283 586.27C469.079 587.978 467.775 589.209 466.648 590.595L465.788 591.234C464.569 590.219 466.216 588.493 466.304 586.791C466.304 586.791 465.625 584.447 465.569 584.251Z"/><path fill="#9488D2" d="M456.092 598.46C458.24 598.651 458.103 598.553 459.19 599.733C458.957 601.797 457.178 602.751 456.507 605.601L455.332 604.951C454.847 603.445 455.895 602.255 456.779 600.452L456.092 598.46Z"/><path fill="#9488D2" d="M442.713 578.816C439.083 579.093 439.441 579.343 438.065 582.518C436.51 580.826 436.901 581.755 436.451 579.808C438.206 576.873 440.577 577.343 443.218 578.466L442.713 578.816Z"/><path fill="#9488D2" d="M497.62 620.32L498.349 620.805C499.173 622.602 499.043 621.706 498.904 623.566C497.798 625.192 498.538 624.599 496.452 625.197C495.358 624.619 495.426 624.675 494.705 623.669C495.191 621.945 495.986 621.765 497.62 620.32Z"/><path fill="#9488D2" d="M463.079 596.02C465.563 595.981 466.557 595.704 468.361 597.619L468.085 598.349L466.873 597.957C464.85 598.488 464.281 598.794 462.406 598.049L462.204 597.302L463.079 596.02Z"/><path fill="#9488D2" d="M494.532 607.291C496.44 607.796 499.756 610.58 500.772 612.205C497.266 611.71 494.74 611.146 494.532 607.291Z"/><path fill="#9488D2" d="M467.585 600.854C469.057 600.81 468.965 600.765 470.299 601.363C471.437 602.913 471.27 602.114 471.223 603.723L470.455 604.167L468.693 602.957L468.108 602.529C466.652 603.382 466.758 603.389 465.102 603.611C465.514 602.273 466.46 601.759 467.585 600.854Z"/><path fill="#9488D2" d="M442.796 595.711C445.415 596.652 445.687 599.038 444.387 601.248L443.019 600.848C441.909 599.139 442.015 597.536 442.796 595.711Z"/><path fill="#9488D2" d="M441.716 567.878C442.478 569.109 442.137 569.756 442.088 571.514L442.765 572.205C445.597 572.052 443.327 571.422 446.158 570.517L446.751 571.689C444.887 572.908 442.162 573.637 440.5 571.83C440.413 570.049 440.902 569.461 441.716 567.878Z"/><path fill="#9488D2" d="M536.285 613.397C537.299 615.287 538.307 615.948 538.913 617.956L538.248 619.058C537.217 618.221 536.192 617.377 535.172 616.527C534.942 614.8 535.059 615.301 536.285 613.397Z"/><path fill="#9488D2" d="M446.545 614.027C448.185 613.945 448.344 613.857 449.978 614.272C450.346 615.612 449.935 615.589 448.989 617.268C447.643 617.555 448.339 617.545 446.866 616.847C445.89 615.061 445.988 615.971 446.545 614.027Z"/><path fill="#9488D2" d="M518.628 607.738L519.237 607.897C520.377 609.047 520.513 609.981 521.006 611.523L520.598 612.092C519.437 611.558 518.283 611.053 517.082 610.613C517.739 609.538 518.079 608.854 518.628 607.738Z"/><path fill="#9488D2" d="M425.198 596.26C426.024 595.901 426.988 596.196 427.472 596.956C427.956 597.716 427.815 598.715 427.14 599.312C426.598 599.79 425.825 599.905 425.167 599.605C424.509 599.305 424.089 598.646 424.096 597.922C424.103 597.199 424.534 596.548 425.198 596.26Z"/><path fill="#9488D2" d="M546.443 617.205C547.852 617.792 547.309 617.345 548.175 618.534C547.481 620.128 547.778 619.601 545.865 620.601C544.474 619.991 544.498 620.092 543.563 618.923C544.257 617.67 544.699 617.882 546.443 617.205Z"/><path fill="#9488D2" d="M462.946 608.306C465.33 610.246 464.842 611.367 463.872 613.637C462.447 612.814 463.089 613.341 462.111 611.721C461.958 609.832 462.05 609.891 462.946 608.306Z"/><path fill="#9488D2" d="M437.959 614.715C440.851 616.275 442.487 616.174 443.387 618.514C441.788 618.219 440.752 617.989 439.183 617.571C437.681 616.079 438.129 616.973 437.959 614.715Z"/><path fill="#9488D2" d="M429.981 598.727C430.924 598.806 431.802 598.959 432.737 599.101C433.744 600.429 433.434 599.641 433.209 601.708C431.936 601.934 431.794 601.911 430.49 601.86C429.575 600.639 429.918 600.668 429.981 598.727Z"/><path fill="#9488D2" d="M456.825 580.906C458.945 580.975 461.249 580.613 462.547 581.728C462.214 582.953 462.022 583.045 461.266 584.097L460.68 584.26L460.792 582.68C459.009 581.784 458.254 582.268 456.825 580.906Z"/><path fill="#A094D1" d="M482.785 601.985L486.043 602.061C487.35 603.179 486.828 602.451 487.068 604.726L485.699 604.999C483.92 604.16 484.124 603.833 482.785 601.985Z"/><path fill="#9488D2" d="M558.377 621.36C558.734 621.624 559.463 622.348 559.815 622.678C560.07 624.593 559.896 624.138 558.907 626.219C557.82 625.331 558.192 625.635 557.499 624.256C557.461 622.623 557.477 622.742 558.377 621.36Z"/><path fill="#9488D2" d="M515.174 617.305C515.644 618.396 515.514 617.946 515.448 619.22C514.597 620.856 513.946 621.047 512.364 621.986L512.191 620.703C512.826 618.822 513.583 618.506 515.174 617.305Z"/><path fill="#9488D2" d="M461.122 578.132L461.307 578.862C458.306 579.851 458.398 578.176 456.825 580.906C455.759 579.583 455.917 580.295 455.935 578.836C457.4 577.852 459.272 578.12 461.122 578.132Z"/><path fill="#9488D2" d="M478.71 595.318C480.088 596.293 480.377 596.356 481.315 597.784L480.866 598.581L477.581 597.882L477.219 597.303L478.71 595.318Z"/><path fill="#9488D2" d="M619.504 630.156L622.853 629.947L623.397 630.462L622.769 631.849C621.609 632.28 621.712 632.205 620.467 632.396L619.734 631.843L619.504 630.156Z"/><path fill="#9488D2" d="M473.183 603.844C475.747 604.227 476.042 605.034 477.126 607.176C476.419 607.12 475.485 606.945 474.789 606.835C473.383 605.544 473.817 605.929 473.183 603.844Z"/><path fill="#9488D2" d="M424.951 546.495C426.551 546.529 426.878 546.374 428.212 547.24L428.335 548.35C426.815 548.448 426.642 548.633 425.342 547.958L424.951 546.495Z"/><path fill="#9488D2" d="M588.415 499.456C599.429 501.663 611.002 506.272 621.361 510.572C633.876 515.767 645.297 522.713 655.824 531.212C659.993 534.578 663.251 539.148 667.406 542.409C674.205 551.387 678.998 560.963 680.11 572.338C679.325 591.26 671.337 603.265 657.714 616.198C654.393 619.351 645.656 626.268 641.548 628.115C640.621 626.92 640.407 626.733 638.631 626.41C629.681 624.788 620.413 623.686 611.406 622.334L567.279 615.286C558.762 613.931 522.601 608.67 517.265 604.828C530.413 603.461 547.056 591.905 552.132 580.079C567.759 572.744 574.549 568.191 583.274 552.992C588.82 543.331 596.62 534.094 587.82 523.4C593.639 513.326 592.966 509.634 588.415 499.456Z"/><path fill="#7D6EBF" d="M610.187 575.427C618.56 575.384 620.922 585.617 612.041 588.708C601.716 587.818 601.669 580.144 610.187 575.427Z"/><path fill="#7D6EBF" d="M669.105 584.517C668.024 581.812 668.319 584.746 666.148 581.43L666.607 580.573L668.299 580.113C671.366 581.415 667.989 580.991 671.023 582.848C675.383 581.687 672.257 580.075 675.313 580.923C676.987 583.731 675.384 588.901 671.495 588.364C670.423 587.221 669.385 586.06 669.105 584.517Z"/><path fill="#7D6EBF" d="M654.669 562.757C656.369 563.978 657.117 564.42 657.384 566.479C655.938 569.129 655.602 569.18 656.344 571.799C658.781 573.732 659.471 574.239 660.012 577.326C659.013 576.792 653.863 573.555 653.451 572.825C651.877 570.04 653.903 565.684 654.669 562.757Z"/><path fill="#7D6EBF" d="M662.619 583.615C668.195 584.902 668.009 594.752 665.211 595.822C663.493 594.909 664.205 595.566 663.297 593.501L662.936 593.014C661.676 592.646 661.615 592.723 660.616 591.914L661.249 591.196C663.524 590.865 665.074 590.204 664.862 587.65C663.681 586.195 663.191 586.062 661.541 585.373L661.449 584.822L662.619 583.615Z"/><path fill="#7D6EBF" d="M659.12 550.717C660.03 550.835 660.938 550.971 661.842 551.125C662.226 553.368 660.714 554.074 661.32 557.266L660.998 557.272L660.863 556.349C660.861 555.043 660.96 554.935 660.485 553.749C658.687 554.034 656.913 554.027 655.445 553.028C655.37 551.659 655.244 552.278 655.963 551.173C657.073 551.081 658.022 550.902 659.12 550.717Z"/><path fill="#7D6EBF" d="M641.311 605.032C643.942 606.246 643.82 605.32 646.911 605.317L648.054 606.809C645.307 609.848 642.717 608.399 641.311 605.032Z"/><path fill="#7D6EBF" d="M661.26 598.122L661.966 597.705L662.327 597.976C663.809 599.076 664.11 599.245 665.762 600.024L666.202 600.729C665.128 601.918 664.984 601.664 663.259 602.256C661.859 602.125 661.94 602.029 660.828 601.112C661.114 599.929 661.138 599.319 661.26 598.122Z"/><path fill="#7D6EBF" d="M653.002 594.267L653.995 594.799C654.483 596.296 653.659 597.78 653.322 599.478L652.725 599.657C651.19 598.467 650.397 598.356 650.181 596.952L653.002 594.267Z"/><path fill="#7D6EBF" d="M648.407 534.028C650.297 533.864 650.754 533.765 651.876 535.146C652.032 537.213 651.17 542.379 649.766 543.815C649.45 543.485 649.035 542.866 648.75 542.475C648.802 539.774 650.387 539.928 651.026 536.685C650.463 534.738 650.727 535.392 648.407 534.028Z"/><path fill="#7D6EBF" d="M655.255 583.584C656.724 583.881 656.66 583.944 657.921 584.805C658.805 586.834 658.598 585.775 658.348 588.137C657.013 587.723 656.495 587.481 655.249 586.914C654.559 585.34 654.84 585.649 655.255 583.584Z"/><path fill="#7D6EBF" d="M654.687 545.722C656.845 546.207 656.028 545.676 657.414 547.032C657.276 548.969 657.563 548.025 656.041 549.78C654.804 549.77 655.393 549.902 654.325 549.138C653.874 547.555 654.151 547.297 654.687 545.722Z"/><path fill="#7D6EBF" d="M651.39 549.021L652.118 549.76C651.351 551.113 648.507 551.913 646.546 552.901C646.182 552.51 646.378 552.793 646.234 551.917C647.467 550.478 649.593 549.802 651.39 549.021Z"/><path fill="#7D6EBF" d="M665.71 558.9C667.274 559.866 667.962 559.955 669.169 561.41L668.796 563.37C667.697 563.65 668.122 563.619 666.993 563.398C665.911 561.716 665.982 560.955 665.71 558.9Z"/><path fill="#7D6EBF" d="M644.934 600.57C645.255 601.027 645.248 601.391 645.388 602.004C644.605 603.177 642.601 603.653 641.156 604.177C641.014 603.979 640.793 603.271 640.698 603.004C641.738 601.697 643.285 601.293 644.934 600.57Z"/><path fill="#7D6EBF" d="M647.953 579.727C649.729 580.059 651.991 580.699 652.749 582.344C651.255 582.957 651.364 582.985 649.771 582.841C648.515 582.029 648.434 581.174 647.953 579.727Z"/><path fill="#7D6EBF" d="M668.901 591.423C669.281 591.593 670.208 592.189 670.6 592.428C671.644 593.9 671.491 594.166 671.596 595.965C670.793 595.567 670.279 595.194 669.528 594.706C668.503 592.738 668.765 593.78 668.901 591.423Z"/><path fill="#7D6EBF" d="M641.288 541.532C643.113 541.857 645.553 542.37 646.77 543.63C644.642 543.633 642.778 543.996 641.244 542.941L641.288 541.532Z"/><path fill="#7D6EBF" d="M633.897 525.277C635.659 527.484 634.996 530.783 634.777 533.588C634.04 531.736 633.426 527.308 633.897 525.277Z"/><path fill="#7D6EBF" d="M663.739 572.187C664.972 572.485 665.185 572.659 666.371 573.19L666.556 573.854L665.005 574.768C663.802 574.959 663.84 575.04 662.723 574.613C662.606 573.053 662.523 573.848 663.739 572.187Z"/><path fill="#7D6EBF" d="M661.26 598.122C661.138 599.319 661.114 599.929 660.828 601.112L660.491 600.709C658.889 601.583 659.112 601.703 657.69 601.534C658.782 599.641 659.398 599.417 661.26 598.122Z"/><path fill="#9488D2" d="M504.957 140.006C507.917 138.587 510.91 136.976 513.817 135.433C552.095 115.128 594.144 100.195 637.501 96.3081C645.312 95.6079 654.383 96.0728 662.388 95.8906C688.288 98.3437 711.756 106.719 729.264 127.115C732.158 130.486 740.336 142.987 740.615 147.072C742.638 149.818 743.897 156.036 744.385 159.493C746.713 175.996 744.359 194.188 738.747 209.858L738.241 210.738C736.239 214.29 733.076 222.925 731.143 227.165C726.69 236.681 721.612 245.893 715.943 254.739C682.039 307.958 630.849 356.152 577.699 389.522C568.761 395.134 547.569 407.89 537.819 412.036C538.25 409.373 538.387 406.919 538.574 404.24L539.111 403.716C537.73 400.269 535.004 398.487 532.139 396.132C537.791 392.395 547.069 388.132 553.351 384.287C564.899 377.218 576.569 369.92 587.628 362.013C642.848 322.529 700.239 263.576 723.419 198.53C729.02 183.543 732.155 161.839 723.939 147.018C691.612 88.6987 585.843 120.632 541.208 142.996C528.383 140.439 517.842 140.4 504.957 140.006Z"/><path fill="#7D6EBF" d="M740.615 147.072C742.638 149.818 743.897 156.036 744.385 159.493C746.713 175.996 744.359 194.188 738.747 209.858L738.241 210.738C736.239 214.29 733.076 222.925 731.143 227.165C726.69 236.681 721.612 245.893 715.943 254.739C682.039 307.958 630.849 356.152 577.699 389.522C568.761 395.134 547.569 407.89 537.819 412.036C538.25 409.373 538.387 406.919 538.574 404.24L539.111 403.716C544.134 402.442 565.88 388.437 570.513 385.187C628.789 344.263 683.45 291.382 718.283 228.662C730.074 207.433 740.998 177.309 742.032 152.89C742.072 151.96 740.932 148.162 740.615 147.072Z"/><defs><linearGradient id="gradient_0" gradientUnits="userSpaceOnUse" x1="558.96271" y1="520.62604" x2="459.14746" y2="693.14026"><stop offset="0" stop-color="#7F6FB8"/><stop offset="1" stop-color="#9488D6"/></linearGradient></defs><path fill="url(#gradient_0)" d="M574.794 654.823C610.122 645.939 650.494 632.8 672.161 601.429C675.122 597.142 677.293 591.101 679.385 586.269C679.846 592.835 679.505 600.757 678.398 607.288C677.932 610.038 676.06 613.658 675.767 616.557L674.876 618.34L674.283 619.021C668.431 625.873 667.064 631.324 658.981 638.307C627.429 665.564 584.716 677.686 543.894 681.635C486.874 687.18 417.7 678.416 371.758 641.603C360.548 632.62 348.014 617.818 347.139 603.032C346.828 597.774 346.949 592.244 347.199 586.931C356.966 615.668 383.881 631.331 410.387 642.606C412.641 643.564 419.857 645.968 420.932 647.191L420.512 648.916L421.109 649.216C423.81 647.506 424.318 647.162 427.326 648.369C428.001 652.09 425.797 653.317 428.532 656.499L429.153 656.532C428.755 654.448 427.82 651.34 428.899 649.617C433.222 648.475 435.456 652.036 436.802 655.437L437.796 655.966L438.346 655.661L437.176 652.847L437.659 652.128C440.263 652.233 448.189 654.346 451.141 655.014C456.816 656.256 462.536 657.285 468.289 658.099C500.072 662.731 541.061 662.736 572.441 655.175L574.794 654.823Z"/><path fill="#7D6EBF" d="M574.794 654.823C575.267 657.779 575.923 660.658 574.902 663.502L573.9 664.374L573.006 664.203C572.43 662.048 573.096 661.692 574.409 659.948L574.203 658.969L572.521 658.706C571.851 657.534 572.217 656.567 572.441 655.175L574.794 654.823Z"/><path fill="#7D6EBF" d="M618.023 655.964C619.478 656.748 618.908 656.22 619.801 657.608L619.563 658.549C618.108 660.107 617.849 660.031 615.639 660.453C615.048 659.132 614.46 658.112 614.052 656.709C615.384 655.683 615.94 656.047 618.023 655.964Z"/><path fill="#9488D2" d="M633.715 641.579C635.497 642.23 635.276 642.414 635.946 643.799C635.397 646.233 635.769 645.354 633.842 647.277C633.38 647.416 632.92 647.415 632.422 647.459C632.022 645.882 633.159 643.271 633.715 641.579Z"/><path fill="#7D6EBF" d="M578.126 662.36C580.036 664.545 579.28 668.067 578.227 670.468C578.18 666.785 576.856 666.543 576.852 663.58L578.126 662.36Z"/><path fill="#9488D2" d="M627.492 645.178C629.091 645.539 629.034 645.438 630.218 646.541C630.755 648.141 630.474 648.611 630.038 650.237C627.704 648.83 627.671 647.69 627.492 645.178Z"/><path fill="#7D6EBF" d="M583.836 668.052C583.96 669.039 584.029 670.227 584.116 671.237C582.906 672.401 582.933 672.02 580.771 672.22C580.551 671.952 580.473 671.594 580.341 671.275C581.621 669.927 582.403 669.25 583.836 668.052Z"/><path fill="#9488D2" d="M648.412 633.841L648.89 634.316C649.34 635.826 648.521 639.137 648.213 640.867L647.175 639.166C646.878 637.237 647.708 635.689 648.412 633.841Z"/><path fill="#7D6EBF" d="M606.472 649.315C608.833 650.155 608.924 651.352 609.796 653.57L606.813 652.331C605.773 650.748 606.072 651.666 606.472 649.315Z"/><path fill="#7D6EBF" d="M601.085 651.424C602.146 653.618 603.489 653.974 603.753 656.102C602.413 655.913 602.357 655.687 601.23 654.857C600.505 652.973 600.695 653.649 601.085 651.424Z"/><path fill="#D8D2EC" d="M340.813 265.987C342.44 268.049 344.281 269.923 346.081 271.839C348.666 274.477 351.416 277.402 354.174 279.814C336.067 296.834 300.437 350.297 300.411 375.466C298.3 377.557 298.864 382.026 298.818 385.38C302.687 435.576 356.908 443.356 397.473 439.538C437.712 435.751 476.472 422.331 513.043 405.574C518.012 403.283 527.596 398.77 532.139 396.132C535.004 398.487 537.73 400.269 539.111 403.716L538.574 404.24C516.167 415.507 493.002 425.518 469.359 434.048C460.967 437.076 448.473 439.194 439.663 441.325C402.546 450.303 363.851 453.901 327.061 441.293C321.751 439.473 315.172 435.803 309.973 433.338C309.939 433.322 308.605 433.598 308.389 433.677C307.751 433.263 307.411 432.93 306.826 432.416C293.437 420.898 285.304 404.434 284.293 386.801C281.558 343.868 313.735 297.008 340.813 265.987Z"/><path fill="#B5ACE1" d="M346.081 271.839C348.666 274.477 351.416 277.402 354.174 279.814C336.067 296.834 300.437 350.297 300.411 375.466C298.3 377.557 298.864 382.026 298.818 385.38C297.938 383.633 298.71 378.618 298.477 376.341C295.691 349.112 310.6 321.771 325.331 299.767C331.623 290.368 339.509 281.305 346.081 271.839Z"/><path fill="#F3A95D" d="M688.722 293.81C692.594 289.181 696.23 284.386 699.913 279.607C716.546 299.217 734.473 326.396 743.083 350.716C744.92 355.905 745.83 362.17 747.45 367.568L747.601 368.059L748.062 371.356C747.923 374.352 747.992 377.823 747.962 380.832C747.495 427.668 703.928 445.923 662.768 445.551C637.426 445.321 616.064 441.001 591.527 433.551C593.607 427.907 596.398 422.551 599.831 417.611C604.189 418.527 610.675 420.729 615.253 421.962C625.207 424.669 635.325 426.73 645.545 428.133C667.712 431.068 696.611 430.39 714.689 416.007C757.079 382.283 712.139 323.485 688.722 293.81Z"/><path fill="#B5ACE1" d="M308.389 433.677C308.605 433.598 309.939 433.322 309.973 433.338C315.172 435.803 321.751 439.473 327.061 441.293C363.851 453.901 402.546 450.303 439.663 441.325C448.473 439.194 460.967 437.076 469.359 434.048C493.002 425.518 516.167 415.507 538.574 404.24C538.387 406.919 538.25 409.373 537.819 412.036C522.441 420.891 505.632 427.26 488.997 433.487C444.019 450.325 392.929 465.316 345.056 452.693C333.795 449.724 316.54 442.151 308.389 433.677Z"/><path fill="#9488D2" d="M526.302 526.384C499.792 528.344 473.144 525.089 450.156 510.824C438.99 503.895 429.853 491.809 438.303 478.887C442.573 483.966 442.578 488.614 448.292 493.079C470.534 510.454 499.998 513.112 526.649 511.265C527.779 514.675 527.677 522.925 526.302 526.384Z"/><path fill="#7D6EBF" d="M587.349 478.258L589.874 482.086C591.036 488.96 591.168 494.378 586.663 500.257C574.492 516.143 549.39 523.053 530.811 525.808C529.313 526.035 527.809 526.227 526.302 526.384C527.677 522.925 527.779 514.675 526.649 511.265C529.035 510.444 534.877 510.407 537.782 509.752C551.257 506.714 565.597 502.915 576.601 494.144C581.82 489.984 584.395 484.091 587.349 478.258Z"/><defs><linearGradient id="gradient_1" gradientUnits="userSpaceOnUse" x1="615.55811" y1="590.59277" x2="411.09448" y2="871.37744"><stop offset="0" stop-color="#A29AD5"/><stop offset="1" stop-color="#D7D2F3"/></linearGradient></defs><path fill="url(#gradient_1)" d="M360.134 633.921C362.539 633.913 366.421 638.615 368.385 640.324C403.328 670.735 451.62 680.364 496.097 684.147L496.082 723.934C496.082 730.251 494.914 747.353 498.847 751.693C504.844 759.034 529.195 757.771 529.452 746.936C529.932 726.745 530.296 703.976 529.554 683.925C577.656 681.077 629.742 668.67 665.106 633.893C709.271 650.907 765.072 691.381 753.078 746.494C749.329 763.721 736.313 779.933 724.049 792.188C711.996 804.256 692.84 816.726 677.563 824.218C588.015 867.5 479.632 870.325 385.647 839.392C333.703 822.296 254.159 774.704 277.137 708.499C290.143 671.025 326.192 650.322 360.134 633.921Z"/><path fill="#0D0B11" d="M685.42 805.908L685.108 806.117L684.427 805.797C679.744 792.724 697.88 781.559 703.956 785.241L704.023 787.224C702.673 788.127 700.311 788.597 698.604 789.135C695.097 790.242 691.971 792.286 689.218 794.712C686.671 799.504 687.538 802.713 685.42 805.908Z"/><path fill="#9488D2" d="M689.305 791.341C693.86 787.171 698.255 786.856 703.956 785.241L704.023 787.224C702.673 788.127 700.311 788.597 698.604 789.135C695.097 790.242 691.971 792.286 689.218 794.712L689.305 791.341Z"/><path fill="#A094D1" d="M685.42 805.908C685.317 804.936 685.245 803.96 685.203 802.983C684.997 797.478 685.706 795.267 689.305 791.341L689.218 794.712C686.671 799.504 687.538 802.713 685.42 805.908Z"/><path fill="#B5ACE1" d="M290.213 743.658C284.227 737.63 291.31 721.038 299.986 721.509L300.289 722.284L299.444 722.586C297 726.819 293.188 729.774 291.693 734.621C290.885 737.241 292.714 742.371 290.213 743.658Z"/><path fill="#0D0B11" d="M290.213 743.658C284.227 737.63 291.31 721.038 299.986 721.509L300.289 722.284L299.444 722.586C295.245 724.561 292.293 726.517 290.582 731.032C288.665 736.088 290.483 740.028 290.213 743.658Z"/><path fill="#0D0B11" d="M573.445 829.581C582.36 828.599 592.057 832.54 596.598 840.486C593.723 839.066 592.124 837.274 589.699 835.104C574.567 824.523 568.953 835.345 563.715 834.53L564.075 833.84C567.89 831.344 569.209 830.755 573.445 829.581Z"/><path fill="#A094D1" d="M693.168 800.281C694.154 796.473 696.058 795.256 699.894 795.651C701.801 800.68 697.295 801.963 693.168 800.281Z"/><path fill="#0D0B11" d="M693.168 800.281C694.154 796.473 696.058 795.256 699.894 795.651C698.377 796.905 694.925 799.334 693.168 800.281Z"/><path fill="#A094D1" d="M722.016 692.643C724.099 693.075 723.275 692.596 724.707 693.883C725.479 695.974 724.987 697.639 724.672 699.901L723.048 699.189C722.011 697.175 721.966 694.861 722.016 692.643Z"/><path fill="#0D0B11" d="M597.567 829.929C601.759 831.205 603.845 833.976 605.764 837.772C603.419 837.135 599.318 832.04 597.567 829.929Z"/><path fill="#B5ACE1" d="M738.49 729.449C739.937 730.85 740.65 731.643 741.032 733.625C739.731 733.513 739.742 733.465 738.517 732.962C737.82 731.248 738.094 731.611 738.49 729.449Z"/><path fill="#0D0B11" d="M300.857 732.702C301.42 732.993 301.056 732.773 301.837 733.518C301.052 735.007 300.392 735.568 299.249 736.768L298.562 736.741L298.355 735.97C299.13 734.124 299.307 734.066 300.857 732.702Z"/><path fill="#B5ACE1" d="M732.01 685.338C732.52 685.532 732.184 685.372 732.9 686.009C732.221 687.549 730.848 688.442 729.499 689.619C728.848 689.265 729.135 689.536 728.771 688.689C729.858 687.495 730.864 686.475 732.01 685.338Z"/><path fill="#FDE680" d="M499.277 141.941C504.906 141.168 513.851 141.461 519.631 141.78C550.964 143.507 581.234 153.383 606.393 172.432C637.19 195.853 657.396 230.571 662.548 268.918C663.423 275.458 664.123 285.235 664.001 291.752C641.484 318.976 608.777 346.06 579.749 365.965C575.231 369.064 565.856 375.564 561.137 377.902C560.353 378.458 559.77 378.901 558.946 379.381C556.819 380.749 554.664 382.21 552.435 383.387C549.878 384.898 547.251 386.516 544.627 387.887C524.022 399.676 509.046 405.77 487.85 415.195L484.896 416.416L478.519 418.788C462.381 424.329 451.577 427.739 435.243 432.029C428.238 411.98 425.58 409.156 409.955 394.701C380.063 367.047 363.769 331.05 362.51 290.285C361.429 252.099 375.413 215.02 401.441 187.057C425.82 161.273 463.65 143.006 499.277 141.941Z"/><path fill="#FAC362" d="M499.277 141.941C504.906 141.168 513.851 141.461 519.631 141.78C550.964 143.507 581.234 153.383 606.393 172.432C637.19 195.853 657.396 230.571 662.548 268.918C663.423 275.458 664.123 285.235 664.001 291.752C641.484 318.976 608.777 346.06 579.749 365.965C575.231 369.064 565.856 375.564 561.137 377.902C563.653 369.503 578.71 347.278 577.921 337.878L578.384 337.33C577.752 335.543 578.115 334.504 578.421 332.626C591.534 325.251 598.594 319.029 597.277 302.863C595.434 296.429 594.221 292.401 586.821 294.727C585.713 293.457 586.458 283.118 586.55 280.696C588.279 235.324 570.678 187.453 534.468 158.796C526.533 152.517 516.072 147.112 507.124 142.129C504.507 142.146 501.89 142.083 499.277 141.941Z"/><path fill="#F3A95D" d="M597.277 302.863L598.293 301.674L599.232 301.766C600.84 303.896 600.8 305.134 601.04 307.682C602.569 323.921 591.834 332.323 578.384 337.33C577.752 335.543 578.115 334.504 578.421 332.626C591.534 325.251 598.594 319.029 597.277 302.863Z"/><path fill="#FEFCF4" d="M483.964 321.505C481.328 316.523 480.745 314.209 479.634 308.073C477.98 298.944 482.324 281.538 494.454 283.729C497.704 284.316 499.812 287.446 501.387 290.414C510.774 296.106 502.284 316.506 497.622 323.407C497.085 324.197 496.524 324.971 495.94 325.727C499.52 328.427 503.82 330.004 508.296 330.258C515.661 330.709 521.24 328.631 526.579 323.784C512.134 296.831 538.966 273.12 544.307 293.353C545.033 304.77 541.445 313.606 536.04 323.433L540.838 327.031C545.933 330.688 554.454 331.035 560.489 331.012C567.297 312.845 569.738 305.742 586.821 294.727C594.221 292.401 595.434 296.429 597.277 302.863C598.594 319.029 591.534 325.251 578.421 332.626C578.115 334.504 577.752 335.543 578.384 337.33L577.921 337.878C578.71 347.278 563.653 369.503 561.137 377.902C560.353 378.458 559.77 378.901 558.946 379.381C556.819 380.749 554.664 382.21 552.435 383.387C549.878 384.898 547.251 386.516 544.627 387.887C524.022 399.676 509.046 405.77 487.85 415.195L484.896 416.416L478.519 418.788C474.705 402.966 470.807 387.164 466.825 371.384C465.557 366.339 458.367 339.785 458.68 336.678C457.58 335.615 456.553 335.478 455.099 334.991C447.116 332.314 441.733 330.204 434.558 325.726C431.733 323.073 427.432 319.838 425.666 316.534C419.434 304.794 432.362 295.617 443.217 300.054C451.998 303.644 456.027 312.538 459.768 320.549C460.387 322.607 461.898 328.424 463.049 329.765L463.768 330.071C471.869 328.645 477.777 327.118 483.964 321.505Z"/><path fill="#FDE680" d="M468.598 340.048C482.204 338.43 480.852 336.555 491.491 331.982L492.363 331.617C500.028 341.19 518.1 343.13 528.223 337.166C530.275 335.957 533.732 332.564 535.757 332.38C539.631 337.875 551.251 340.708 557.522 341.963C555.784 346.917 544.601 384.263 544.627 387.887C524.022 399.676 509.046 405.77 487.85 415.195C486.139 410.381 483.836 400.736 482.498 395.555C477.733 377.099 473.517 358.486 468.598 340.048Z"/><path fill="#F3A95D" d="M488.232 326.483L492.608 330.935L492.363 331.617L491.491 331.982C480.852 336.555 482.204 338.43 468.598 340.048C473.517 358.486 477.733 377.099 482.498 395.555C483.836 400.736 486.139 410.381 487.85 415.195L484.896 416.416C478.534 389.812 471.278 363.399 465 336.501C474.596 335.501 481.188 333.286 488.232 326.483Z"/><path fill="#FDE680" d="M577.921 337.878C578.71 347.278 563.653 369.503 561.137 377.902C560.353 378.458 559.77 378.901 558.946 379.381C558.802 378.931 558.657 378.481 558.512 378.03C561.39 366.713 566.343 351.202 568.556 340.174C572.325 339.827 574.457 339.092 577.921 337.878Z"/><path fill="#F3A95D" d="M565.417 336.331C570.661 335.508 573.551 334.735 578.421 332.626C578.115 334.504 577.752 335.543 578.384 337.33L577.921 337.878C574.457 339.092 572.325 339.827 568.556 340.174C566.343 351.202 561.39 366.713 558.512 378.03C558.657 378.481 558.802 378.931 558.946 379.381C556.819 380.749 554.664 382.21 552.435 383.387C556.209 368.404 562.519 351.213 565.417 336.331Z"/><path fill="#F3A95D" d="M501.387 290.414C510.774 296.106 502.284 316.506 497.622 323.407C497.085 324.197 496.524 324.971 495.94 325.727C494.578 324.583 493.21 323.327 491.876 322.141C499.473 311.875 502.662 303.216 501.387 290.414Z"/><path fill="#F3A95D" d="M531.559 328.477C532.722 329.425 534.795 331.004 535.811 331.979L535.757 332.38C533.732 332.564 530.275 335.957 528.223 337.166C518.1 343.13 500.028 341.19 492.363 331.617L492.608 330.935C505.068 339.256 520.666 340.013 531.559 328.477Z"/><path fill="#F3A95D" d="M535.811 331.979C541.112 334.723 546.853 337.213 552.922 337.494C554.222 337.554 557.521 337.46 558.341 338.003C558.272 339.934 558.172 340.105 557.522 341.963C551.251 340.708 539.631 337.875 535.757 332.38L535.811 331.979Z"/><path fill="#FDE680" d="M433.839 316.862C426.606 308.359 435.238 301.573 445.148 309.295C450.907 314.422 452.696 322.153 456.249 328.621C448.503 325.977 439.963 322.524 433.839 316.862Z"/><path fill="#F3A95D" d="M433.839 316.862C426.606 308.359 435.238 301.573 445.148 309.295C437.65 308.505 436.351 309.597 433.839 316.862Z"/><path fill="#F3A95D" d="M568.596 328.884C571.951 319.697 575.127 313.019 582.421 306.366C584.491 304.478 586.553 302.165 589.556 302.212C590.8 303.639 590.471 303.884 590.871 306.093C591.27 313.723 588.849 317.691 582.692 322.091C580.271 323.815 576.816 325.989 573.981 326.898C572.714 327.625 570.07 328.397 568.596 328.884Z"/><path fill="#FAC362" d="M590.871 306.093C591.27 313.723 588.849 317.691 582.692 322.091C580.327 319.385 583.756 316.01 582.383 312.98C583.579 311.544 589.069 308.374 590.871 306.093Z"/><path fill="#FDE680" d="M582.383 312.98C583.756 316.01 580.327 319.385 582.692 322.091C580.271 323.815 576.816 325.989 573.981 326.898C576.354 321.551 578.083 317.068 582.383 312.98Z"/><defs><linearGradient id="gradient_2" gradientUnits="userSpaceOnUse" x1="485.95569" y1="298.7446" x2="493.20132" y2="303.39368"><stop offset="0" stop-color="#F4AA4C"/><stop offset="1" stop-color="#FBC452"/></linearGradient></defs><path fill="url(#gradient_2)" d="M489.566 314.645L488.732 315.529C484.196 311.719 484.613 290.168 493.537 290.41C495.144 291.348 494.559 290.68 495.174 292.628C494.341 302.68 493.586 305.168 489.566 314.645Z"/><path fill="#FDE680" d="M495.174 292.628C494.341 302.68 493.586 305.168 489.566 314.645C485.666 306.974 490.113 298.422 495.174 292.628Z"/><path fill="#F3A95D" d="M532.33 316.078C531.734 317.439 532.215 317.073 531.128 317.54C525.985 311.252 530.854 290.765 537.532 293.5C538.218 295.194 537.888 297.036 537.756 298.901C536.896 304.362 535.266 311.37 532.33 316.078Z"/><path fill="#FDE680" d="M532.33 316.078C530.965 309.347 531.701 302.937 537.756 298.901C536.896 304.362 535.266 311.37 532.33 316.078Z"/><path fill="#FAC362" d="M544.307 293.353L544.863 292.32C553.716 296.585 544.312 321.229 540.838 327.031L536.04 323.433C541.445 313.606 545.033 304.77 544.307 293.353Z"/><path fill="#F3A95D" d="M434.558 325.726C441.733 330.204 447.116 332.314 455.099 334.991C456.553 335.478 457.58 335.615 458.68 336.678C458.157 337.775 458.451 337.449 457.451 338.134C452.186 337.889 435.784 330.355 434.558 325.726Z"/><path fill="#FAC362" d="M459.768 320.549C462.645 321.599 464.068 327.204 463.768 330.071L463.049 329.765C461.898 328.424 460.387 322.607 459.768 320.549Z"/><path fill="#FEFCF4" d="M463.581 161.624C467.335 161.55 469.001 162.104 471.445 164.81C480.54 174.885 469.389 181.894 460.644 185.464C457.102 186.91 450.787 190.263 447.613 192.344C440.795 196.815 433.465 202.766 427.87 208.749C424.572 212.288 423.53 214.342 418.911 216.075C407.405 215.615 403.516 204.979 409.95 197.252C420.593 184.468 447.306 164.746 463.581 161.624Z"/><defs><linearGradient id="gradient_3" gradientUnits="userSpaceOnUse" x1="605.03607" y1="644.78003" x2="413.74918" y2="910.88953"><stop offset="0" stop-color="#7F6EC1"/><stop offset="1" stop-color="#9F94DA"/></linearGradient></defs><path fill="url(#gradient_3)" d="M753.776 781.093C751.868 790.861 748.147 800.185 742.807 808.583C715.261 851.898 653.029 876.32 604.34 886.816C515.328 906.003 406.341 898.715 327.498 849.833C303.826 834.389 281 812.654 274.618 784.143C273.483 779.071 270.754 750.76 273.251 746.932C273.842 747.897 276.608 756.919 278.014 760.078C294.278 796.614 339.514 823.834 376.257 837.349C466.953 870.709 578.745 869.653 667.439 830.242C697.471 816.898 727.39 796.836 744.861 768.454C749.146 761.494 751.763 754.367 754.632 746.811C754.404 755.681 755.215 769.067 754.271 777.437L753.776 781.093Z"/><path fill="#9488D2" d="M753.776 781.093C751.987 780.262 751.599 780.326 751.006 778.588L751.625 777.59C752.987 777.147 752.891 777.109 754.271 777.437L753.776 781.093Z"/><path fill="#0D0B11" d="M422.068 863.205C426.339 862.117 430.69 864.668 431.827 868.926C432.964 873.184 430.462 877.565 426.217 878.75C423.428 879.528 420.435 878.748 418.382 876.706C416.328 874.664 415.531 871.676 416.293 868.882C417.056 866.089 419.261 863.92 422.068 863.205Z"/><path fill="#9488D2" d="M421.962 864.047C431.928 863.292 433.588 873.4 426.163 877.983C416.436 878.456 414.04 869.37 421.962 864.047Z"/><path fill="#7D6EBF" d="M700.012 835.402C700.546 835.386 701.002 835.493 701.543 835.574C703.403 839.31 704.418 840.753 701.594 843.717C699.367 842.739 698.15 840.83 697.769 838.525C698.181 836.773 698.65 836.575 700.012 835.402Z"/><path fill="#7D6EBF" d="M664.332 837.495C666.394 837.202 667.7 836.591 668.872 838.437C668.666 840.202 667.472 841.629 666.46 843.148C666.289 843.598 666.439 843.278 665.756 843.937C663.077 842.219 663.317 840.019 664.332 837.495Z"/><path fill="#9488D2" d="M729.072 810.276C731.2 812.233 729.688 814.631 729.931 817.594L728.781 817.845C727.407 817.371 727.009 817.328 725.822 816.47L725.98 815.184C727.528 813.278 727.896 812.482 729.072 810.276Z"/><path fill="#7D6EBF" d="M653.279 842.348C654.933 842.66 659.106 844.252 660.452 845.306L660.343 846.923C658.497 846.69 657.824 846.652 655.992 846.928C654.24 845.857 654.201 844.591 653.279 842.348Z"/><path fill="#9488D2" d="M731.187 803.104C734.362 805.797 731.084 805.411 733.967 805.889L735.747 805.063C737.306 805.906 736.618 805.319 737.539 807.232C735.236 808.804 736.135 808.641 733.627 808.759C730.931 807.213 731.178 806.064 731.187 803.104Z"/><path fill="#7D6EBF" d="M687.018 843.238C688.904 844.07 689.3 844.362 689.432 846.187C688.463 848.083 688.323 848.528 688.062 850.644L687.856 850.756L687.037 850.488C685.822 848.215 686.32 845.636 687.018 843.238Z"/><path fill="#7D6EBF" d="M683.253 838.69L683.662 839.06C684.195 842.299 684.332 842.708 682.771 845.477C681.9 846.007 681.65 846.123 680.886 846.834L680.277 846.574C680.932 842.835 682.433 842.85 682.781 840.296C682.007 839.897 681.723 839.736 680.956 839.258L682.459 839.316L683.253 838.69Z"/><path fill="#9488D2" d="M697.076 822.947C697.771 823.131 698.011 823.333 698.657 823.681C698.867 825.231 698.142 826.092 697.419 827.797C695.375 826.739 695.424 827.174 694.503 825.508C695.253 823.806 695.276 824.201 697.076 822.947Z"/><path fill="#9488D2" d="M723.883 799.73C727.67 799.532 729.045 799.467 731.187 803.104C728.175 802.796 725.67 802.412 723.883 799.73Z"/><path fill="#7D6EBF" d="M650.283 848.645C654.406 850.272 653.087 855.183 652.402 858.715L651.698 857.943C651.832 854.082 651.845 852.144 650.283 848.645Z"/><path fill="#7D6EBF" d="M664.224 844.339L665.321 845.073L665.465 846.482C664.808 848.413 664.851 848.309 663.184 849.52C662.24 848.719 662.443 848.907 661.691 847.932C662.024 846.043 662.598 846.043 664.224 844.339Z"/><path fill="#0D0B11" d="M350.375 846.305C351.644 847.399 353.408 852.694 354.707 855.19C351.287 853.468 350.379 849.847 350.375 846.305Z"/><path fill="#7D6EBF" d="M654.78 853.386C655.86 853.764 655.649 853.705 656.632 854.331C657.034 856.63 656.001 858.701 655.183 860.954C654.889 860.784 654.594 860.614 654.3 860.445C654.83 857.55 655.166 856.377 654.78 853.386Z"/><path fill="#7D6EBF" d="M682.286 848.804C684.607 849.274 683.74 848.713 685.193 850.165C685.626 851.93 685.323 852.456 684.834 854.192L684.325 854.255C683.155 853.362 682.774 850.575 682.286 848.804Z"/><path fill="#9488D2" d="M736.008 799.316C737.875 799.778 739.026 800.211 740.126 801.79L739.709 803.161C737.6 803.107 737.012 802.175 735.758 800.677L736.008 799.316Z"/><path fill="#0D0B11" d="M342.631 846.038L343.967 846.707C344.805 848.51 345.127 851.214 345.479 853.242C343.085 851.754 343.03 848.631 342.631 846.038Z"/><path fill="#7D6EBF" d="M670.899 845.884C673.777 846.822 673.713 847.408 674.508 850.292C673.286 850.047 673.151 849.954 671.969 849.515C670.744 847.735 671.122 848.296 670.899 845.884Z"/><path fill="#9488D2" d="M744.713 783.289L745.837 784.543C745.671 786.354 745.535 785.937 743.978 787.631C743.161 787.433 743.585 787.64 742.849 786.776C742.941 785.24 743.746 784.532 744.713 783.289Z"/><path fill="#0D0B11" d="M434.755 876.39C435.136 876.843 434.888 876.504 435.268 877.54C434.86 879.561 434.303 879.928 432.902 881.568L432.259 880.627C432.433 878.926 433.645 877.798 434.755 876.39Z"/><path fill="#9488D2" d="M712.235 828.758L713.126 829.257C713.7 830.935 713.267 831.603 712.701 833.305C710.742 831.165 711.181 831.007 712.235 828.758Z"/><path fill="#FAC362" d="M549.857 407.244C557.938 402.619 566.005 398.286 573.935 393.381C605.389 374.04 634.42 351.011 660.41 324.783C654.966 349.245 639.981 375.606 622.136 392.88C612.538 402.171 602.057 410.055 595.531 422.097C592.215 428.216 588.267 437.255 587.238 444.134C584.365 463.323 587.068 472.865 568.374 484.764C560.706 489.645 547.059 494.824 537.872 496.314C536.082 496.665 534.288 496.999 532.492 497.316L526.526 498.061C519.241 498.651 511.923 498.716 504.629 498.257C502.444 498.059 500.259 497.85 498.076 497.63L493.987 497.245L486.648 496.169C474.076 493.132 462.423 489.218 452.303 480.822C441.086 471.515 441.286 463.919 440.057 450.593C454.135 446.595 468.218 442.629 481.874 437.364L489.195 434.715L492.319 433.493C504.139 429.205 514.44 424.683 525.907 419.6C528.168 418.137 534.83 415.101 537.539 413.781C539.517 412.544 542.332 411.207 544.461 410.119C545.375 409.435 548.669 407.852 549.857 407.244Z"/><path fill="#FDE680" d="M440.057 450.593C454.135 446.595 468.218 442.629 481.874 437.364C486.149 447.608 487.53 455.652 487.05 466.744C486.642 476.187 487.623 486.833 486.648 496.169C474.076 493.132 462.423 489.218 452.303 480.822C441.086 471.515 441.286 463.919 440.057 450.593Z"/><path fill="#FDE680" d="M492.319 433.493C504.139 429.205 514.44 424.683 525.907 419.6C525.969 422.141 521.63 431.473 520.323 434.712C516.051 445.316 512.538 456.21 509.811 467.312C508.425 473.033 507.723 480.526 507.023 486.398C506.704 489.07 506.567 495.625 505.826 497.729L504.629 498.257C502.444 498.059 500.259 497.85 498.076 497.63L493.987 497.245L486.648 496.169C487.623 486.833 486.642 476.187 487.05 466.744C487.53 455.652 486.149 447.608 481.874 437.364L489.195 434.715L492.319 433.493Z"/><path fill="#FEFCF4" d="M481.874 437.364L489.195 434.715C495.965 456.348 493.534 474.85 493.987 497.245L486.648 496.169C487.623 486.833 486.642 476.187 487.05 466.744C487.53 455.652 486.149 447.608 481.874 437.364Z"/><path fill="#F3A95D" d="M489.195 434.715L492.319 433.493C494.052 440.857 496.775 452.312 497.192 459.672C497.898 472.162 497.391 485.043 498.076 497.63L493.987 497.245C493.534 474.85 495.965 456.348 489.195 434.715Z"/><path fill="#FAC362" d="M525.907 419.6C528.168 418.137 534.83 415.101 537.539 413.781C535.086 421.538 528.252 440.349 527.237 447.399C525.346 460.541 525.973 484.445 526.526 498.061C519.241 498.651 511.923 498.716 504.629 498.257L505.826 497.729C506.567 495.625 506.704 489.07 507.023 486.398C507.723 480.526 508.425 473.033 509.811 467.312C512.538 456.21 516.051 445.316 520.323 434.712C521.63 431.473 525.969 422.141 525.907 419.6Z"/><path fill="#FEFCF4" d="M537.539 413.781C539.517 412.544 542.332 411.207 544.461 410.119C543.051 421.837 535.489 437.841 533.58 449.498C531.376 462.951 532.412 483.221 532.492 497.316L526.526 498.061C525.973 484.445 525.346 460.541 527.237 447.399C528.252 440.349 535.086 421.538 537.539 413.781Z"/><path fill="#F3A95D" d="M549.857 407.244C547.873 423.5 539.5 440.532 536.868 456.322C535.922 461.999 535.706 490.075 536.754 495.659C537.069 495.857 537.55 496.198 537.872 496.314C536.082 496.665 534.288 496.999 532.492 497.316C532.412 483.221 531.376 462.951 533.58 449.498C535.489 437.841 543.051 421.837 544.461 410.119C545.375 409.435 548.669 407.852 549.857 407.244Z"/><path fill="#FAC362" d="M361.038 285.224C354.781 279.038 348.441 272.923 342.474 266.471C300.746 222.281 262.807 129.781 344.221 103.684C397.667 86.5511 465.834 110.81 513.239 134.793C509.862 136.801 506.853 137.832 503.662 140.321C498.493 140.456 492.073 141.221 486.839 141.704C483.321 139.931 476.055 136.901 472.265 135.449C434.266 121.353 383.322 104.632 343.78 120.638C307.08 135.493 307.055 168.248 320.684 200.321C325.05 209.716 340.113 236.829 347.152 242.69L347.318 242.886C350.087 248.293 358.73 257.104 363.191 261.766C362.614 265.841 362.079 269.922 361.586 274.008L361.038 285.224Z"/><path fill="#F3A95D" d="M320.684 200.321C325.05 209.716 340.113 236.829 347.152 242.69L347.318 242.886C350.087 248.293 358.73 257.104 363.191 261.766C362.614 265.841 362.079 269.922 361.586 274.008C356.136 268.334 347.839 257.253 342.533 251.163C334.406 241.837 319.156 212.435 320.684 200.321Z"/><path fill="#7D6EBF" d="M497.495 684.382C507.811 684.535 518.168 684.752 528.464 683.973C528.673 698.149 528.735 712.326 528.65 726.503C528.649 733.38 528.843 740.399 528.342 747.243C528.119 750.301 524.787 752.409 522.281 753.516C513.911 756.511 503.205 756.022 497.701 748.155C496.851 735.341 497.437 715.518 497.437 702.192C497.217 696.237 497.386 690.338 497.495 684.382Z"/><path fill="#9488D2" d="M497.437 702.192L497.924 702.555C506.999 709.392 510.715 714.967 522.567 718.467C522.578 728.025 523.091 744.432 522.281 753.516C513.911 756.511 503.205 756.022 497.701 748.155C496.851 735.341 497.437 715.518 497.437 702.192Z"/><path fill="#9488D2" d="M438.176 501.636C441.822 505.673 444.095 511.489 447.943 514.696C469.1 532.328 499.237 534.756 525.022 533.373L525.006 543.177C523.676 544.854 522.323 546.512 520.948 548.152C500.885 550.434 471.162 544.667 453.671 535.034C441.022 528.068 429.449 516.853 438.176 501.636Z"/><path fill="#9488D2" d="M438.55 524.138C441.216 527.061 444.328 533.688 447.19 536.148C467.074 553.243 496.924 555.978 521.245 555.394C523.06 560.962 522.128 564.556 519.612 569.558L519.416 569.942C496.055 570.486 446.59 565.918 435.659 538.032C433.848 533.413 436.005 528.248 438.55 524.138Z"/><path fill="#7D6EBF" d="M438.811 456.416C440.734 458.552 438.303 468.321 447.134 477.439C463.551 494.39 487.359 498.732 509.942 499.847C531.167 500.894 560.506 494.749 576.7 480.159C584.514 473.12 586.382 465.975 586.725 455.949C588.976 459.618 589.88 461.024 590.431 465.275C589.914 470.314 588.613 475.102 585.325 479.088C563.941 505.011 521.84 508.921 490.834 504.094C475.549 501.714 460.652 496.863 448.396 487.684C438.865 480.546 430.078 467.457 438.811 456.416Z"/><path fill="#7D6EBF" d="M521.245 555.394C542.956 553.439 564.62 549.8 581.495 533.16C583.934 530.756 584.791 526.74 586.805 524.936C588.094 525.292 588.587 525.9 589.177 527.144C596.205 541.96 579.119 553.104 568.24 558.307C552.48 565.846 536.417 569.07 519.416 569.942L519.612 569.558C522.128 564.556 523.06 560.962 521.245 555.394Z"/><path fill="#7D6EBF" d="M525.022 533.373C544.183 531.05 561.829 527.37 577.444 515.246C581.215 512.318 584.676 505.087 587.69 502.04C588.781 502.676 589.611 503.851 589.925 505.057C595.922 528.096 563.309 540.224 546.49 544.407C539.241 546.209 528.018 548.215 520.948 548.152C522.323 546.512 523.676 544.854 525.006 543.177L525.022 533.373Z"/><path fill="#32236A" d="M516.041 585.111C524.919 585.862 528.853 585.689 538.051 583.826C540.516 583.327 547.862 580.738 549.878 581.283C549.342 582.565 546.726 587.357 545.65 588.113C526.841 601.338 495.92 601.775 478.199 586.322C476.609 584.936 474.225 582.281 474.218 580.347L475.208 580.192C476.959 581.204 477.737 581.792 479.732 582.126C492.772 584.308 496.376 587.067 509.507 585.057C511.375 585.02 514.277 584.868 516.041 585.111Z"/><path fill="#7D6EBF" d="M582.309 551.051C582.082 553.136 579.598 555.843 578.021 557.109C558.863 572.504 528.491 576.804 504.729 575.688C487.149 574.862 457.81 568.574 445.972 555.189C444.938 553.944 444.749 553.707 443.894 552.24C444.557 552.184 455.182 558.98 457.37 559.968C495.165 577.038 548.556 575.561 582.309 551.051Z"/><path fill="#F3A95D" d="M654.995 235.282C660.573 238.307 680.625 258.976 685.887 264.632L679.615 272.749L675.298 278.505C671.385 274.791 667.406 271.105 663.71 267.181C662.721 263.558 662.1 258.541 661.049 254.437C659.27 247.486 657.378 241.995 654.995 235.282Z"/><path fill="#9488D2" d="M449.396 560.143C454.225 562.96 459.58 566.205 464.716 568.297C481.212 575.016 502.762 577.938 520.527 576.719C521.235 579.517 521.097 581.961 520.698 584.819L516.041 585.111C514.277 584.868 511.375 585.02 509.507 585.057C489.415 585.453 460.841 578.283 449.396 560.143Z"/><path fill="#7D6EBF" d="M577.358 559.349C567.362 577.837 539.714 583.225 520.698 584.819C521.097 581.961 521.235 579.517 520.527 576.719C544.055 574.395 556.52 572.736 577.358 559.349Z"/><path fill="#9488D2" d="M443.541 507.842C470.248 525.512 490.631 528.507 522.026 527.897C521.832 529.509 521.899 531.268 521.041 532.384C496.069 533.252 459.73 529.39 443.541 507.842Z"/><path fill="#9488D2" d="M443.021 529.015C463.497 545.249 488.65 548.954 513.992 549.919C515.752 549.969 516.931 549.934 518.669 550.331C519.676 551.712 519.311 551.989 519.368 554.105C494.241 555.154 458.963 550.755 443.021 529.015Z"/><path fill="#9488D2" d="M442.616 484.522C466.133 504.259 493.631 507.609 523.126 506.909C524.28 508.375 524.588 508.865 526.095 510.045C501.468 512.439 456.928 507.443 442.616 484.522Z"/><path fill="#7D6EBF" d="M582.778 528.605C573.41 546.567 537.907 553.853 519.368 554.105C519.311 551.989 519.676 551.712 518.669 550.331C516.931 549.934 515.752 549.969 513.992 549.919C539.447 548.629 562.029 544.697 582.778 528.605Z"/><path fill="#7D6EBF" d="M582.984 506.103C576.059 518.508 561.314 524.296 548.251 527.991C539.373 530.466 530.246 531.939 521.041 532.384C521.899 531.268 521.832 529.509 522.026 527.897C543.615 526.536 566.167 520.213 582.984 506.103Z"/><defs><linearGradient id="gradient_4" gradientUnits="userSpaceOnUse" x1="554.52887" y1="502.94391" x2="552.0097" y2="494.5264"><stop offset="0" stop-color="#7765C2"/><stop offset="1" stop-color="#8379B2"/></linearGradient></defs><path fill="url(#gradient_4)" d="M523.126 506.909C546.198 504.827 566.613 499.299 583.749 483.183C572.928 502.006 546.102 507.877 526.095 510.045C524.588 508.865 524.28 508.375 523.126 506.909Z"/><path fill="#32236A" d="M487.246 593.846C488.631 594.079 497.656 597.073 499.893 597.686C513.621 601.448 522.732 598.776 535.792 594.69L536.245 595.065L534.901 596.961C524.776 603.643 515.802 604.906 503.791 602.786C497.799 601.729 490.774 599.068 487.246 593.846Z"/><path fill="#D8D2EC" d="M354.189 250.427C358.933 244.264 365.486 238.375 371.208 233.064C369.368 238.48 367.569 243.911 365.813 249.355C365.182 253.038 364.453 256.703 363.625 260.347L359.722 256.45L354.189 250.427Z"/><path fill="#B5ACE1" d="M359.722 256.45C361.547 252.88 362.537 251.668 365.813 249.355C365.182 253.038 364.453 256.703 363.625 260.347L359.722 256.45Z"/><defs><linearGradient id="gradient_5" gradientUnits="userSpaceOnUse" x1="615.71259" y1="771.71979" x2="896.77039" y2="826.21069"><stop offset="0" stop-color="#D2D0E8" stop-opacity="0.011764706"/><stop offset="1" stop-color="#F2F1F5" stop-opacity="0"/></linearGradient></defs><path fill="url(#gradient_5)" d="M700.908 650.738L701.385 649.739C702.923 650.099 704.934 650.76 706.375 650.418L706.622 649.177C708.628 648.883 711.171 650.883 712.628 650.677C728.35 648.45 741.472 655.187 756.769 658.843C757.387 659.767 757.245 659.518 757.7 660.62L758.815 660.68C759.276 660.07 759.493 659.759 759.927 659.096C763.668 660.282 786.637 666.294 787.624 667.298L787.51 669.501L788.447 670.144C789.545 669.834 789.929 669.706 790.972 669.249C792.764 670.112 792.67 670.055 793.764 671.732C796.061 672.734 797.54 672.356 799.983 672.444C801.983 672.516 807.351 677.444 808.635 677.858C813.356 679.378 818.965 682.2 823.369 683.656L823.625 685.009C825.534 685.63 827.007 684.778 830.022 685.745C830.748 687.074 830.54 686.53 830.671 688.108C832.243 689.022 834.09 688.262 835.767 687.723C836.043 689.2 835.882 689.238 835.419 690.714L835.754 691.396L837.156 691.401C840.498 687.688 843.031 695.278 848.314 695.166C847.081 693.975 855.506 701.643 853.491 700.331C856.357 702.197 868.957 717.251 870.771 717.892C871.942 715.222 866.963 712.537 864.765 709.871C869.773 708.74 875.821 722.689 880.292 721.208C884.818 727.643 880.919 730.344 888.452 733.201L888.436 733.196C888.539 734.797 888.539 737.256 889.784 738.361C891.055 737.829 891.388 737.518 892.502 736.727L893.098 737.154C892.585 738.094 892.951 737.743 892.008 738.218L891.606 739.505C893.756 743.558 896.514 743.436 896.488 747.219L897.366 747.095C898.61 748.414 898.489 749.496 898.439 751.289L897.531 752.325C898.745 753.633 899.186 753.705 900.798 754.388C901.997 757.073 903.398 760.466 904.829 762.945L905.669 763.23C904.519 764.914 903.21 764.296 901.993 766.266C903.077 769.547 905.622 766 902.677 770.938C902.765 773.478 902.817 776.858 903.006 779.349C903.211 782.034 904.633 784.499 904.439 787.66C903.104 787.976 903.595 787.942 902.247 787.751L901.566 788.201C902.536 789.26 902.211 788.883 903.786 789.408C904.725 793.026 901.692 792.476 901.464 795.52L902.24 798.077L901.768 798.707L901.218 797.672C900.754 798.845 900.733 799.262 899.799 800.132C898.252 801.572 898.77 804.525 897.296 805.933L896.373 805.737C895.25 808.22 897.592 806.564 895.474 808.358L895.186 806.676L893.893 806.562C892.768 809.359 895.184 812.794 890.734 814.174C890.043 813.615 889.414 813.091 888.698 812.568L888.151 813.023L888.376 812.587C888.836 813.884 888.781 813.558 889.694 814.532C888.64 816.828 885.49 814.629 883.413 815.932L883.226 816.906C884.477 818.07 885.077 818.297 886.56 819.072C886.049 820.524 884.626 820.702 883.137 821.335C882.189 822.809 881.598 824.011 880.191 825.04L879.509 825.095C878.976 824.143 879.119 824.549 879.113 823.393C877.654 823.405 878.254 823.151 877.231 824.123C877.843 825.421 877.543 824.971 878.642 825.95C877.085 829.045 874.216 829.452 871.156 829.181C869.939 830.693 869.925 831.188 869.433 833.027C868.204 833.648 868.173 833.623 866.81 833.902C862.084 839.208 861.972 839.472 856.176 843.357L855.158 842.383C852.261 842.578 850.959 844.39 848.88 846.457L850.755 846.926L850.99 847.513C848.381 848.331 846.638 847.627 844.704 848.806L844.467 849.841C845.346 850.665 844.92 850.302 845.729 850.945C843.672 851.732 841.801 852.437 839.695 853.109L839.21 854.331C836.599 854.921 833.91 854.043 832.47 854.931C831.727 857.097 832.381 856.339 830.719 857.498L827.726 857.556L827.417 858.278C828.053 859.35 828.792 859.592 829.9 860.232L829.768 860.98C826.885 862.643 824.122 859.889 822.662 863.055C821.915 864.676 821.067 866.487 819.506 867.225L818.845 866.862L818.724 865.601C816.944 865.46 816.093 866.065 814.469 866.827C813.89 868.265 813.973 868.33 813.891 869.911L813.231 869.767L813.186 867.859L812.236 867.498L811.429 867.977C811.232 869.033 811.158 869.543 810.751 870.535C810.101 869.603 810.375 870.08 810.364 868.643L809.237 868.543C808.332 869.684 807.901 870.65 806.268 870.709C803.831 870.797 801.065 869.511 798.991 871.486C798.141 872.295 798.139 874.221 797.337 875.276C795.825 875.738 795.621 875.605 794.071 875.441C792.972 876.487 792.723 878.085 791.997 878.463C789.578 879.721 786.355 877.997 784.598 879.916L784.736 882L784.032 882.439C782.635 881.744 782.725 881.715 781.702 880.499L780.736 880.577C780.225 882.858 780.589 882.851 779.248 884.367L778.287 884.272L777.601 882.525C775.93 881.928 776.785 882.133 774.618 882.607L774.082 883.388C774.742 884.863 774.709 884.832 775.758 886.054C773.836 886.54 773.049 886.078 771.155 885.472C769.781 886.482 770.581 887.304 769.56 887.62C750.85 893.407 731.1 896.688 712.377 902.272L711.811 901.291L710.548 901.558L709.808 903.421L709.14 903.272L708.574 902.235C706.573 902.158 700.396 904.903 697.813 905.204C697.192 905.276 696.99 903.565 695.295 904.188C689.194 906.368 682.627 906.425 676.247 907.24C672.832 907.676 667.966 909.228 664.699 909.266C648.703 909.452 632.912 910.975 616.91 910.402C607.273 910.057 596.609 911.342 587.08 909.819C586.425 908.951 586.617 909.407 586.418 908.491C590.345 907.071 595.636 906.041 600.258 904.437C619.294 897.787 638.219 890.822 657.024 883.544C670.119 878.557 685.933 872.701 698.523 866.728C700.946 864.737 711.046 861.357 714.488 860.186L714.574 859.702C714.804 859.664 715.033 859.612 715.266 859.589C717.963 859.316 720.428 857.409 723.001 856.504C745.165 848.705 763.627 840.699 781.132 824.394C790.745 815.439 803.849 801.96 804.228 787.861C804.602 773.991 799.227 755.596 792.354 743.651C785.792 732.245 772.368 716.593 763.048 706.914C758.474 702.165 753.053 696.106 746.106 695.969C738.23 682.413 727.748 670.551 715.265 661.066C710.621 657.518 705.424 654.318 700.908 650.738Z"/><path fill="#B5ACE1" fill-opacity="0.23137255" d="M746.106 695.969C753.053 696.106 758.474 702.165 763.048 706.914C772.368 716.593 785.792 732.245 792.354 743.651C799.227 755.596 804.602 773.991 804.228 787.861C803.849 801.96 790.745 815.439 781.132 824.394C763.627 840.699 745.165 848.705 723.001 856.504C720.428 857.409 717.963 859.316 715.266 859.589C715.033 859.612 714.804 859.664 714.574 859.702L714.488 860.186C711.046 861.357 700.946 864.737 698.523 866.728C697.361 866.48 695.62 865.948 694.533 866.435C674.892 875.228 654.46 881.83 634.698 890.237C631.613 891.55 627.183 892.109 623.975 893.344C616.225 896.262 608.392 899.114 600.598 901.89C590.118 905.621 578.187 905.801 567.363 908.259C565.594 908.659 566.4 908.629 564.437 908.547C563.297 908.303 564.226 908.448 563.121 908.413C548.37 907.954 531.383 906.354 516.881 904.121C518.305 904.049 518.879 903.985 520.282 903.735L520.194 903.319L517.214 903.632C516.458 903.125 516.118 902.987 515.28 902.665C515.864 902.436 516.56 902.023 517.13 901.716L516.152 900.82C514.263 900.389 515.18 900.365 513.299 900.933L513.191 902.251C510.452 901.807 511.483 899.893 506.851 900.958C505.986 901.188 500.607 900.181 499.125 900.002L499.235 899.472L501.356 898.562L501.48 898.218L498.288 897.528C563.327 897.455 604.754 892.797 665.775 868.721C665.307 869.736 665.458 869.196 665.341 870.347L666.885 870.288L666.887 870.296C665.166 872.419 655.582 874.534 654.19 876.525C657.648 876.312 680.935 866.965 681.665 864.663L679.147 862.512C685.955 859.1 691.942 855.664 698.548 851.849C701.117 851.478 702.109 850.344 704.527 849.29C705.419 849.877 705.555 849.961 706.539 850.367C709.001 849.783 720.758 840.404 722.769 838.094C721.68 837.409 719.984 840.146 717.8 840.197C718.701 837.43 735.529 826.094 736.856 819.002C743.278 811.701 749.256 800.195 752.221 790.989C753.668 786.587 754.676 782.053 755.23 777.452C755.99 770.848 755.626 763.789 755.792 757.123C756.374 733.82 757.143 717.395 746.106 695.969Z"/><path fill="#D8D2EC" fill-opacity="0.19607843" d="M564.437 908.547C566.4 908.629 565.594 908.659 567.363 908.259C578.187 905.801 590.118 905.621 600.598 901.89C608.392 899.114 616.225 896.262 623.975 893.344C627.183 892.109 631.613 891.55 634.698 890.237C654.46 881.83 674.892 875.228 694.533 866.435C695.62 865.948 697.361 866.48 698.523 866.728C685.933 872.701 670.119 878.557 657.024 883.544C638.219 890.822 619.294 897.787 600.258 904.437C595.636 906.041 590.345 907.071 586.418 908.491C586.06 908.302 585.198 908.048 584.777 907.907C579.001 909.143 570.234 909.812 564.437 908.547Z"/><defs><linearGradient id="gradient_6" gradientUnits="userSpaceOnUse" x1="712.02649" y1="846.59412" x2="710.44531" y2="842.83887"><stop offset="0" stop-color="#B7B1DF" stop-opacity="0.35686275"/><stop offset="1" stop-color="#ADAAD8" stop-opacity="0.39215687"/></linearGradient></defs><path fill="url(#gradient_6)" d="M736.856 819.002C735.529 826.094 718.701 837.43 717.8 840.197C719.984 840.146 721.68 837.409 722.769 838.094C720.758 840.404 709.001 849.783 706.539 850.367C705.555 849.961 705.419 849.877 704.527 849.29C702.109 850.344 701.117 851.478 698.548 851.849C715.466 840.205 722.996 835.136 736.856 819.002Z"/><path fill="#B5ACE1" fill-opacity="0.30588236" d="M665.775 868.721C667.631 867.584 676.708 863.63 679.147 862.512L681.665 864.663C680.935 866.965 657.648 876.312 654.19 876.525C655.582 874.534 665.166 872.419 666.887 870.296L666.885 870.288L665.341 870.347C665.458 869.196 665.307 869.736 665.775 868.721Z"/><path fill="#D8D2EC" fill-opacity="0.36078432" d="M506.851 900.958C511.483 899.893 510.452 901.807 513.191 902.251L513.299 900.933C515.18 900.365 514.263 900.389 516.152 900.82L517.13 901.716C516.56 902.023 515.864 902.436 515.28 902.665C516.118 902.987 516.458 903.125 517.214 903.632L520.194 903.319L520.282 903.735C518.879 903.985 518.305 904.049 516.881 904.121L508.065 902.953L506.851 900.958Z"/><path fill="#D8D2EC" fill-opacity="0.24313726" d="M499.125 900.002C500.607 900.181 505.986 901.188 506.851 900.958L508.065 902.953C505.252 902.316 501.409 902.608 499.379 901.267L499.125 900.002Z"/></svg>